<svg id="Layer_1" data-name="Layer 1" xmlns="http://www.w3.org/2000/svg" viewBox="0 0 595.28 595.28"><defs><style>.cls-1,.cls-2{fill:#231f20;}.cls-2{fill-rule:evenodd;}</style></defs><title>Artboard 1</title><path class="cls-1" d="M167.5,450.93a2.47,2.47,0,0,1-.86-.75,2.93,2.93,0,0,1-.39-1.11,6.28,6.28,0,0,1-.25-1.51c0-.43.07-.83.07-1.22v-2.44a7.41,7.41,0,0,0-.18-1.44,10.84,10.84,0,0,0-.22-1.4,3.1,3.1,0,0,0-.47-1.33,2.81,2.81,0,0,0-1-1,3.63,3.63,0,0,0-1.33-.47,9,9,0,0,0-1.33-.18,8.53,8.53,0,0,0-1.33-.07h-2.44c-.4,0-.79.11-1.18.11a5.46,5.46,0,0,0-1.33,0,9.73,9.73,0,0,0-1.33.18,4.31,4.31,0,0,0-1.26.47,3.33,3.33,0,0,0-.9,1,4.08,4.08,0,0,0-.47,1.22c-.11.47-.29.93-.36,1.4s0,.93,0,1.4,0,.9,0,1.33-.11.9-.11,1.33,0,.9-.07,1.33a7.8,7.8,0,0,1,0,1.29,2.8,2.8,0,0,1-.79,1.47,2.27,2.27,0,0,1-1.55.68,2.49,2.49,0,0,1-1.62-.61,2.77,2.77,0,0,1-.86-1.44c-.11-.43-.18-.86-.25-1.29s0-.9,0-1.33-.11-1-.11-1.47.11-1,.11-1.51,0-1,0-1.51c0-1,0-1,0-1.94v-1.72c0-.83,0-.83,0-1.69,0-.47,0-.9,0-1.33s.07-.86.07-1.29-.11-.9-.11-1.33.14-.86.14-1.29-.07-.9-.07-1.33,0-.86,0-1.29.07-.9.07-1.33-.07-1,0-1.51a13.08,13.08,0,0,1,.22-1.51,2.52,2.52,0,0,1,.72-1.29,2.47,2.47,0,0,1,1.26-.75,2.6,2.6,0,0,1,1.58.14,2.68,2.68,0,0,1,1.08,1.19,4.19,4.19,0,0,1,.25,1.8c0,.43.07.86.07,1.29s0,.86,0,1.29a8.37,8.37,0,0,0,.22,1.26,8.79,8.79,0,0,0,.18,1.26,4.41,4.41,0,0,0,.43,1.33,2.73,2.73,0,0,0,1,1,3.64,3.64,0,0,0,1.33.47,11.69,11.69,0,0,0,1.55.14c.43,0,.86,0,1.29,0s.9-.07,1.33-.07.86,0,1.33,0,1.26,0,1.87,0a8.67,8.67,0,0,0,1.72-.29,2.79,2.79,0,0,0,1.11-.43,2.85,2.85,0,0,0,.9-.83,4.32,4.32,0,0,0,.5-1.15c.11-.43.29-.86.36-1.29s.11-.93.11-1.36v-.9c0-.57-.07-1.11-.07-1.69a4.67,4.67,0,0,1,.29-1.62,2.26,2.26,0,0,1,2.33-1.72s0,.07,0,.07a2.45,2.45,0,0,1,1.44.47A2.4,2.4,0,0,1,171,424a5.54,5.54,0,0,1,.14,2s.07,0,.07.11c0,.5,0,1,0,1.51s-.11,1-.11,1.55,0,1,0,1.51v1.54c0,.5,0,1,0,1.51s0,.65,0,1.26,0,.61,0,1.26-.11.61-.11,1.22h0v2.84c0,.68-.07.68-.07,1.4s.11.72.11,1.4,0,.72,0,1.44-.11.68-.11,1.4,0,.68,0,1.4a7,7,0,0,1,0,1.72,3.7,3.7,0,0,1-.58,1,2.36,2.36,0,0,1-.83.75,2,2,0,0,1-1.08.4l0,0A2.45,2.45,0,0,1,167.5,450.93Z"/><path class="cls-1" d="M211,449s-.07,0-.07.07a2.28,2.28,0,0,1-.54,1.58,2.16,2.16,0,0,1-1.51.72s-.11,0-.18,0a2.79,2.79,0,0,1-1.08-.14,2.71,2.71,0,0,1-.83-.65,6.61,6.61,0,0,1-1-.83,3.87,3.87,0,0,1-.65-1.08,11.93,11.93,0,0,0-.72-1.29v-.07a6.37,6.37,0,0,0-1-1.18,4.76,4.76,0,0,0-1.36-.65,5,5,0,0,0-1.47-.36c-.47,0-1,0-1.44,0s-.93-.14-1.44-.14-.93.11-1.4.11-1-.11-1.44-.07-1,.07-1.44.07a4.71,4.71,0,0,0-1.22.32,3.7,3.7,0,0,0-1.15.5,4.41,4.41,0,0,0-.93.9,5.58,5.58,0,0,0-.83,1c-.21.4-.29.79-.47,1.08s-.43.72-.65,1a3.16,3.16,0,0,1-.83.86,3.23,3.23,0,0,1-1.08.43,3,3,0,0,1-1.22.18,2.54,2.54,0,0,1-1.08-.54,1.91,1.91,0,0,1-.5-1,2.1,2.1,0,0,1,0-1.15c.11-.43.18-.86.32-1.26s.32-.79.47-1.19.47-.9.68-1.4.32-1,.54-1.44.43-.83.61-1.26l.58-1.22c.18-.43.29-.9.47-1.33a12.86,12.86,0,0,0,.5-1.26c.14-.4.4-.75.54-1.11s.29-.83.43-1.19.43-.75.61-1.11.29-.68.47-1,.25-.68.43-1,.32-.75.5-1.15.36-.75.5-1.11.32-.79.5-1.19.25-.72.4-1.08a9.35,9.35,0,0,0,.47-1l.57-1.19c.18-.4.32-.79.5-1.19a5.51,5.51,0,0,1,1.08-1.65,3.61,3.61,0,0,1,1.19-.79,3.53,3.53,0,0,1,1.36-.21,3.2,3.2,0,0,1,1.33.39,4.1,4.1,0,0,1,1.15.79,8.33,8.33,0,0,1,.79,1.08,10,10,0,0,1,.54,1.22l.54,1.11c.14.39.39.72.54,1.11s.32.75.5,1.11.39.83.57,1.22.25.86.43,1.29.39.79.58,1.22.32.83.5,1.26.4.83.54,1.22.32.86.5,1.26.32.86.54,1.29.4.83.61,1.26l.54,1.33c.21.47.47.86.65,1.33s.29.93.47,1.37.32.75.5,1.15.29.75.47,1.15.54.83.72,1.26.32.75.47,1.15A7.39,7.39,0,0,1,211,449Zm-10.63-12.07a9.61,9.61,0,0,0-.32-1.15,8.44,8.44,0,0,0-.75-1.51,10.15,10.15,0,0,0-.9-1.4,1.73,1.73,0,0,0-1.33-.68,1.65,1.65,0,0,0-1.44.47,5.32,5.32,0,0,0-.75,1.08c-.25.39-.47.79-.68,1.18a13.83,13.83,0,0,0-.5,1.44,6,6,0,0,0-.25,1.51,3.19,3.19,0,0,0,.43,1.69,2.74,2.74,0,0,0,1.4,1,3.92,3.92,0,0,0,1.69.32s0-.11,0-.11v.07a3.87,3.87,0,0,0,1.9-.4,2.32,2.32,0,0,0,1.18-.86,2.38,2.38,0,0,0,.29-1.4A6.94,6.94,0,0,0,200.41,436.89Z"/><path class="cls-1" d="M251.46,426.94v1.44c0,.47,0,.93,0,1.4v2.8c0,.47-.07,1-.07,1.44s.07.93.07,1.4,0,.93,0,1.4,0,.93,0,1.4,0,1,0,1.44.07.93.07,1.4,0,.93,0,1.4v1.4c0,.47,0,.93,0,1.44s0,.93,0,1.4a12.82,12.82,0,0,1-.18,1.69v.5a4.46,4.46,0,0,1-.39,1.22,2.68,2.68,0,0,1-.9.9,3.32,3.32,0,0,1-1.22.47,8,8,0,0,1-1.58.14,7.38,7.38,0,0,1-2-.32,3.85,3.85,0,0,1-1.11-.47,4.72,4.72,0,0,1-1-.72,5,5,0,0,1-.83-.9c-.21-.36-.39-.72-.61-1l-.65-1c-.22-.32-.47-.65-.68-1s-.32-.72-.54-1.08-.47-.65-.68-1-.47-.61-.68-1-.36-.75-.57-1.11-.47-.72-.72-1.08l-.65-1.08c-.22-.36-.43-.75-.65-1.11s-.47-.75-.68-1.11-.54-.72-.75-1.08-.47-.75-.72-1.11-.47-.72-.72-1.08a9.17,9.17,0,0,0-1.08-1.33c-.11-.07-.22,0-.32-.11a1.55,1.55,0,0,0-1.4-.47,1.48,1.48,0,0,0-1,1.08c-.14.47-.25.9-.36,1.33s-.22.9-.25,1.33,0,1,0,1.4,0,.86,0,1.29v1.33c0,.43,0,.86,0,1.33s0,.86,0,1.29v3c0,.57.07,1.11.07,1.69v.18a5.23,5.23,0,0,1-.25,1.62,2.44,2.44,0,0,1-.79,1.33A2.24,2.24,0,0,1,226,451a2.6,2.6,0,0,1-1.47-.39,2.69,2.69,0,0,1-.83-1.29,3,3,0,0,1-.11-.5v-.14a6.67,6.67,0,0,1-.25-1.22c0-.4-.07-.79-.07-1.22s0-.93,0-1.4v-1.4c0-.47,0-.9,0-1.37s.11-.93.11-1.4,0-.93,0-1.4c0-.65-.11-.65-.11-1.29s.11-.68.11-1.33v-1.15c0-.61,0-.61,0-1.19s0-1,0-1.44v-1.44c0-.5,0-1,0-1.47s.11-1,.11-1.44-.11-1-.11-1.47.14-.86.18-1.29a7.55,7.55,0,0,1,.11-1.29,3.1,3.1,0,0,1,.9-1.47,3.13,3.13,0,0,1,1.44-.93,9.7,9.7,0,0,1,1.47-.14,6.77,6.77,0,0,1,1.47.07,11.1,11.1,0,0,1,1.51.25,5.37,5.37,0,0,1,1.19.65,4,4,0,0,1,.93,1c.29.36.58.68.83,1s.36.83.61,1.19.54.86.79,1.33.57.86.83,1.29l.79,1.33c.25.43.58.79.83,1.19s.43.83.68,1.22l.36.61c.25.39.5.79.75,1.22s.54.75.79,1.19.54.75.79,1.19l.75,1.19c.22.36.47.68.68,1s.47.68.72,1a2.8,2.8,0,0,0,1.36.79,1,1,0,0,0,1-.11,2.66,2.66,0,0,0,.93-1.76,1.83,1.83,0,0,1,0-.47c.07-.5.14-1,.18-1.4s0-.93,0-1.4,0-1,0-1.51.07-1,.07-1.54-.11-1-.11-1.51.11-1,.11-1.51,0-1,0-1.51c0-1,0-1,0-1.9,0-.36.07-.75.11-1.15a4.82,4.82,0,0,1,.32-1.11,2.42,2.42,0,0,1,.65-.93,2.49,2.49,0,0,1,1-.47,2.42,2.42,0,0,1,1.11.18,2.17,2.17,0,0,1,1,.54,2.3,2.3,0,0,1,.72,1.44l.11.61A11.11,11.11,0,0,1,251.46,426.94Z"/><path class="cls-1" d="M265.15,445.76v-2.69c0-.43,0-.86,0-1.33v-1.33c0-.43,0-.9,0-1.33v-1.19c0-.61,0-.61,0-1.22v-1.33c0-.68,0-.68,0-1.37,0-.5,0-1,0-1.54s0-1,0-1.54-.11-1-.11-1.54v-1.51c0-.54,0-1,0-1.54a10.15,10.15,0,0,1,.18-1.76,2.78,2.78,0,0,1,.43-1.11,2.39,2.39,0,0,1,.83-.86,2.94,2.94,0,0,1,1.11-.54H268a9.26,9.26,0,0,1,1.72-.14c.36,0,.68,0,1,0s1,0,1.47,0,1,0,1.47,0l1.47.11a12.92,12.92,0,0,0,1.69.07c.36,0,.72.14,1.08.18a5.83,5.83,0,0,1,1.11,0c.36.07.79.14,1.22.25s.83.22,1.22.32a8,8,0,0,1,1.26.29c.39.14.79.22,1.18.4a13.2,13.2,0,0,1,1.22.65,9.47,9.47,0,0,1,1.18.72,8.22,8.22,0,0,1,1.19.75,8.12,8.12,0,0,1,1,1,12.31,12.31,0,0,1,.93,1c.29.36.5.79.75,1.15s.5.79.72,1.19.36.86.5,1.29.25.86.36,1.33.18.9.25,1.37.11.9.14,1.37v.29c0,.4,0,.83,0,1.22s0,.83,0,1.22a7.37,7.37,0,0,1,0,1.26c-.07.47-.22.93-.32,1.4s-.29.93-.47,1.36-.32.93-.54,1.37-.47.83-.72,1.26a9,9,0,0,1-1.9,2.16,14.21,14.21,0,0,1-1.11.93,7.08,7.08,0,0,1-1.15.9c-.4.25-.83.43-1.22.65s-.83.4-1.29.58a10.44,10.44,0,0,1-1.26.61c-.43.14-.9.29-1.33.39s-.93.14-1.4.22-.9.14-1.36.22-1.08.18-1.62.21-1,0-1.58,0H273.2c-.54,0-1.11.07-1.65.07s-.86-.11-1.29-.11-.9.11-1.33.11a5.59,5.59,0,0,1-1.08-.07,3.13,3.13,0,0,1-1.22-.5,2.26,2.26,0,0,1-.86-1,3.32,3.32,0,0,1-.47-1.22,9.28,9.28,0,0,1-.18-1.72C265.11,446.62,265.15,446.19,265.15,445.76Zm5.24-13.08c0,.43,0,.83,0,1.26s0,.86,0,1.29,0,.57,0,1.11,0,.58,0,1.15c0,0,0,0,0,.07,0,.57,0,1.18,0,1.76a8.37,8.37,0,0,1,.11,1c0,.4-.07.83,0,1.22s0,.83,0,1.26a5.23,5.23,0,0,0,.18,1.54,3.44,3.44,0,0,0,.86,1.26,3.22,3.22,0,0,0,1.29.9,5.11,5.11,0,0,0,1.58.32,10.29,10.29,0,0,0,1.47,0c.5,0,1-.07,1.51-.14a11.69,11.69,0,0,0,1.44-.32,10.58,10.58,0,0,0,1.15-.22c.39-.14.75-.32,1.08-.47a9.77,9.77,0,0,0,1-.57c.39-.25.79-.47,1.15-.72a8.57,8.57,0,0,0,1-.93,14.55,14.55,0,0,0,1.47-2.3,7.18,7.18,0,0,0,.47-1.22,12.33,12.33,0,0,0,.39-1.22,9.63,9.63,0,0,0,.11-2.62c0-.5,0-1-.07-1.44a9.16,9.16,0,0,0-.36-1.44,8.13,8.13,0,0,0-.65-1.26,9.68,9.68,0,0,0-.79-1.19,9.81,9.81,0,0,0-1-1.11,9.45,9.45,0,0,0-1.11-.9c-.39-.25-.83-.43-1.26-.68s-.83-.47-1.26-.65l-1.29-.43c-.47-.11-.93-.11-1.4-.18s-.9-.18-1.36-.22-.9.07-1.37.11a9.2,9.2,0,0,0-1.4.14,2.76,2.76,0,0,0-1.22.43,3.31,3.31,0,0,0-1,.83,4.41,4.41,0,0,0-.5,1.26,9.34,9.34,0,0,0-.18,2C270.43,431.82,270.4,432.25,270.4,432.68Z"/><path class="cls-1" d="M335,451a2.64,2.64,0,0,1-1.18-.72,2.72,2.72,0,0,1-.58-1.26c-.07-.43-.18-.9-.22-1.33s0-.9,0-1.36,0-.86,0-1.26v-1.29c0-.4-.11-.83-.11-1.26s0-.83,0-1.26,0-.86,0-1.29v-2.51c0-.5-.11-1-.14-1.47s-.07-.93-.14-1.44c0-.25,0-.25,0-.5a2.79,2.79,0,0,0-.68-1.58.74.74,0,0,0-1-.07,4,4,0,0,0-1.22,1.4,11.54,11.54,0,0,0-.61,1.15c-.18.4-.29.79-.47,1.19s-.32.79-.47,1.22l-.32.83-.43,1.18c-.14.4-.36.75-.5,1.15s-.18.83-.29,1.22-.36.75-.47,1.15-.18.93-.36,1.36-.36.9-.5,1.33-.22.93-.36,1.37-.43.86-.61,1.29a5.47,5.47,0,0,1-.75,1.62,2.57,2.57,0,0,1-1,.9,2.45,2.45,0,0,1-1.22.4,2.49,2.49,0,0,1-1.26-.29,3.07,3.07,0,0,1-1-.75,4.72,4.72,0,0,1-.72-1.15,12.2,12.2,0,0,1-.5-1.47c-.21-.54-.43-1-.61-1.47s-.14-.75-.25-1.11-.32-.68-.43-1-.25-.9-.4-1.33-.18-.9-.32-1.36-.39-.83-.54-1.26l-.43-1.29c-.14-.36-.18-.72-.29-1.08l-.43-1.19c-.14-.43-.25-.83-.39-1.22s-.43-.72-.65-1.11a5,5,0,0,0-1-1.51,3.55,3.55,0,0,0-.61-.39.5.5,0,0,0-.61.11,2.6,2.6,0,0,0-.68,1.37,12.23,12.23,0,0,0-.29,1.29c0,.43.07.43,0,.86l-.11,1.19c0,.39-.14.75-.14,1.15s0,.79,0,1.19-.11.9-.11,1.33,0,.9,0,1.33,0,.9,0,1.33.07.9.07,1.33-.07,1-.07,1.47.07,1,.07,1.51a7.27,7.27,0,0,1-.25,1.51,2.43,2.43,0,0,1-.75,1.4,2.15,2.15,0,0,1-1.47.65,2.33,2.33,0,0,1-1.58-.57,2.4,2.4,0,0,1-.9-1.4,7.65,7.65,0,0,1-.18-1.26,6.9,6.9,0,0,1,0-1.22c0-.47-.11-1-.11-1.44s0-.93,0-1.4-.07-1-.07-1.44v-1.4c0-.47.14-1,.14-1.44s-.14-.93-.14-1.4.07-1,.07-1.44,0-.93,0-1.4,0-1,0-1.44,0-.93,0-1.4,0-1,0-1.44c0-1.62-.11-3.27,0-4.92a4.59,4.59,0,0,1,1.22-3.2c1.83-1.8,6.43-1.44,8,.5a7,7,0,0,1,1,1.83c1.18,3,2,6.11,3.16,9.16l.54,1.29a13.6,13.6,0,0,0,.54,1.29,4.7,4.7,0,0,0,.57,1.11,3.37,3.37,0,0,0,.75,1,1.62,1.62,0,0,0,1.19.47,1.91,1.91,0,0,0,1.19-.5,5.71,5.71,0,0,0,.93-1.11,7.14,7.14,0,0,0,.61-1.29c.18-.57.25-.54.43-1.11s.18-.58.36-1.15a10.38,10.38,0,0,0,.43-1.11c.18-.47.29-1,.47-1.47.61-1.83,1.26-3.63,1.87-5.46a6.59,6.59,0,0,1,2.19-3.48c2.48-1.8,7.33-1.62,8.19,1.8.47,1.76.07,3.84.07,5.64,0,.47.07.9.07,1.33s-.07.86-.07,1.33v1.29c0,.86.07.86.07,1.69v1.69c0,.9-.11.9-.11,1.76,0,.47,0,.93,0,1.37s0,.9,0,1.36,0,.9,0,1.33-.07.93-.07,1.37.07.9.07,1.36v1.33a6.62,6.62,0,0,1-.25,1.69,2.68,2.68,0,0,1-1.11,1.69,2.64,2.64,0,0,1-1.15.32A2.67,2.67,0,0,1,335,451Z"/><path class="cls-1" d="M378,449s-.07,0-.07.07a2.27,2.27,0,0,1-.54,1.58,2.16,2.16,0,0,1-1.51.72s-.11,0-.18,0a2.79,2.79,0,0,1-1.08-.14,2.72,2.72,0,0,1-.83-.65,6.58,6.58,0,0,1-1-.83,3.85,3.85,0,0,1-.65-1.08,11.87,11.87,0,0,0-.72-1.29v-.07a6.41,6.41,0,0,0-1-1.18,4.76,4.76,0,0,0-1.37-.65,5,5,0,0,0-1.47-.36c-.47,0-1,0-1.44,0s-.93-.14-1.44-.14-.93.11-1.4.11-1-.11-1.44-.07-1,.07-1.44.07a4.71,4.71,0,0,0-1.22.32,3.69,3.69,0,0,0-1.15.5,4.42,4.42,0,0,0-.94.9,5.63,5.63,0,0,0-.83,1c-.21.4-.29.79-.47,1.08s-.43.72-.65,1a3.15,3.15,0,0,1-.83.86,3.23,3.23,0,0,1-1.08.43,3,3,0,0,1-1.22.18,2.55,2.55,0,0,1-1.08-.54,1.91,1.91,0,0,1-.5-1,2.09,2.09,0,0,1,0-1.15c.11-.43.18-.86.32-1.26s.33-.79.47-1.19.47-.9.68-1.4.32-1,.54-1.44.43-.83.61-1.26l.58-1.22c.18-.43.29-.9.47-1.33a12.61,12.61,0,0,0,.5-1.26c.14-.4.4-.75.54-1.11s.29-.83.43-1.19.43-.75.61-1.11.29-.68.47-1,.25-.68.43-1,.33-.75.5-1.15.36-.75.5-1.11.32-.79.5-1.19.25-.72.4-1.08a9.19,9.19,0,0,0,.47-1l.57-1.19c.18-.4.32-.79.5-1.19a5.52,5.52,0,0,1,1.08-1.65,3.62,3.62,0,0,1,1.19-.79,3.53,3.53,0,0,1,1.37-.21,3.2,3.2,0,0,1,1.33.39,4.1,4.1,0,0,1,1.15.79,8.34,8.34,0,0,1,.79,1.08,10,10,0,0,1,.54,1.22l.54,1.11c.14.39.39.72.54,1.11s.32.75.5,1.11.39.83.57,1.22.25.86.43,1.29.39.79.58,1.22.32.83.5,1.26.4.83.54,1.22.32.86.5,1.26.32.86.54,1.29.4.83.61,1.26l.54,1.33c.21.47.47.86.65,1.33s.29.93.47,1.37.32.75.5,1.15.29.75.47,1.15.54.83.72,1.26.32.75.47,1.15A7.32,7.32,0,0,1,378,449Zm-10.63-12.07a9.44,9.44,0,0,0-.32-1.15,8.43,8.43,0,0,0-.75-1.51,10.18,10.18,0,0,0-.9-1.4,1.74,1.74,0,0,0-1.33-.68,1.65,1.65,0,0,0-1.44.47,5.34,5.34,0,0,0-.75,1.08c-.25.39-.47.79-.68,1.18a13.74,13.74,0,0,0-.5,1.44,6,6,0,0,0-.25,1.51,3.19,3.19,0,0,0,.43,1.69,2.74,2.74,0,0,0,1.4,1,3.93,3.93,0,0,0,1.69.32s0-.11,0-.11v.07a3.87,3.87,0,0,0,1.91-.4,2.32,2.32,0,0,0,1.18-.86,2.38,2.38,0,0,0,.29-1.4A6.88,6.88,0,0,0,367.36,436.89Z"/><path class="cls-1" d="M390.25,445.76v-2.69c0-.43,0-.86,0-1.33v-1.33c0-.43,0-.9,0-1.33v-1.19c0-.61,0-.61,0-1.22v-1.33c0-.68,0-.68,0-1.37,0-.5,0-1,0-1.54s0-1,0-1.54-.11-1-.11-1.54v-1.51c0-.54,0-1,0-1.54a10.2,10.2,0,0,1,.18-1.76,2.79,2.79,0,0,1,.43-1.11,2.39,2.39,0,0,1,.83-.86,2.94,2.94,0,0,1,1.11-.54h.25a9.25,9.25,0,0,1,1.72-.14c.36,0,.68,0,1,0s1,0,1.47,0,1,0,1.47,0l1.47.11a12.92,12.92,0,0,0,1.69.07c.36,0,.72.14,1.08.18a5.84,5.84,0,0,1,1.11,0c.36.07.79.14,1.22.25s.83.22,1.22.32a8,8,0,0,1,1.26.29c.39.14.79.22,1.18.4a13.2,13.2,0,0,1,1.22.65,9.46,9.46,0,0,1,1.18.72,8.29,8.29,0,0,1,1.19.75,8.12,8.12,0,0,1,1,1,12.3,12.3,0,0,1,.93,1c.29.36.5.79.75,1.15s.5.79.72,1.19.36.86.5,1.29.25.86.36,1.33.18.9.25,1.37.11.9.14,1.37v.29c0,.4,0,.83,0,1.22s0,.83,0,1.22a7.33,7.33,0,0,1,0,1.26c-.07.47-.22.93-.32,1.4s-.29.93-.47,1.36-.33.93-.54,1.37-.47.83-.72,1.26a9,9,0,0,1-1.9,2.16,14.4,14.4,0,0,1-1.11.93,7.08,7.08,0,0,1-1.15.9c-.4.25-.83.43-1.22.65s-.83.4-1.29.58a10.44,10.44,0,0,1-1.26.61c-.43.14-.9.29-1.33.39s-.93.14-1.4.22-.9.14-1.37.22-1.08.18-1.62.21-1,0-1.58,0H398.3c-.54,0-1.11.07-1.65.07s-.86-.11-1.29-.11-.9.11-1.33.11a5.6,5.6,0,0,1-1.08-.07,3.12,3.12,0,0,1-1.22-.5,2.26,2.26,0,0,1-.86-1,3.33,3.33,0,0,1-.47-1.22,9.33,9.33,0,0,1-.18-1.72C390.21,446.62,390.25,446.19,390.25,445.76Zm5.24-13.08c0,.43,0,.83,0,1.26s0,.86,0,1.29,0,.57,0,1.11,0,.58,0,1.15c0,0,0,0,0,.07,0,.57,0,1.18,0,1.76a8.58,8.58,0,0,1,.11,1c0,.4-.07.83,0,1.22s0,.83,0,1.26a5.23,5.23,0,0,0,.18,1.54,3.44,3.44,0,0,0,.86,1.26,3.22,3.22,0,0,0,1.29.9,5.11,5.11,0,0,0,1.58.32,10.29,10.29,0,0,0,1.47,0c.5,0,1-.07,1.51-.14a11.72,11.72,0,0,0,1.44-.32,10.55,10.55,0,0,0,1.15-.22c.39-.14.75-.32,1.08-.47a9.73,9.73,0,0,0,1-.57c.39-.25.79-.47,1.15-.72a8.53,8.53,0,0,0,1-.93,14.64,14.64,0,0,0,1.47-2.3,7.15,7.15,0,0,0,.47-1.22,12.59,12.59,0,0,0,.39-1.22,9.71,9.71,0,0,0,.11-2.62c0-.5,0-1-.07-1.44a9.22,9.22,0,0,0-.36-1.44,8.17,8.17,0,0,0-.65-1.26,9.63,9.63,0,0,0-.79-1.19,9.81,9.81,0,0,0-1-1.11,9.45,9.45,0,0,0-1.11-.9c-.39-.25-.83-.43-1.26-.68s-.83-.47-1.26-.65L404,427c-.47-.11-.93-.11-1.4-.18s-.9-.18-1.37-.22-.9.07-1.37.11a9.21,9.21,0,0,0-1.4.14,2.75,2.75,0,0,0-1.22.43,3.3,3.3,0,0,0-1,.83,4.42,4.42,0,0,0-.5,1.26,9.34,9.34,0,0,0-.18,2C395.53,431.82,395.5,432.25,395.5,432.68Z"/><path class="cls-1" d="M431.17,451.08a3.12,3.12,0,0,1-1.11-1.15,3.6,3.6,0,0,1-.54-1.47c0-.29.07-.57.07-.93s-.14-.93-.14-1.44,0-1,0-1.44.11-1,.11-1.47,0-1,0-1.44,0-1,0-1.44-.14-1-.14-1.47.11-1,.11-1.44V436c0-.5,0-1,0-1.47s0-1,0-1.44-.07-1-.07-1.44v-1.47c0-.47,0-1,0-1.44s0-1,0-1.44.07-1,.07-1.47a8.48,8.48,0,0,1,.11-1.4,3.13,3.13,0,0,1,.75-1.54,3,3,0,0,1,1.55-.72,10.17,10.17,0,0,1,1.18-.22,7,7,0,0,1,1.22,0h0c.47,0,.93-.07,1.37-.07s.93,0,1.4,0,.93,0,1.4,0,.9.07,1.36.07.94,0,1.4,0,.9,0,1.36,0,.93.07,1.4.07a10.78,10.78,0,0,1,1.08.07,5.42,5.42,0,0,1,1.08.11,4.06,4.06,0,0,1,1,.47,2.45,2.45,0,0,1,.9.75,2,2,0,0,1,.29,1.15,2.64,2.64,0,0,1-1.29,1.72,4.17,4.17,0,0,1-1.9.32c-.43,0-.43.14-.83.14s-.79-.11-1.19-.11-.75,0-1.15,0h-1.19a10.7,10.7,0,0,0-1.51.07c-.5,0-1,.14-1.51.22a4.86,4.86,0,0,0-1.54.47,2.94,2.94,0,0,0-1.08,1.22,3.8,3.8,0,0,0-.32,1.58c0,.11.07.25.07.36s0,.36,0,.54a3.86,3.86,0,0,0,.32,1.15,3.55,3.55,0,0,0,.61,1,3.16,3.16,0,0,0,1.08.61,6.71,6.71,0,0,0,1.51.32,11.3,11.3,0,0,0,1.58,0c.43,0,.83,0,1.26,0h1.26c.39,0,.83.07,1.22.07.07,0,.07-.11.14-.11.32,0,.65.11,1,.14a4.83,4.83,0,0,1,1.19.36,2.53,2.53,0,0,1,1,.72,2.25,2.25,0,0,1,.43,1.15,1.92,1.92,0,0,1-.43,1.08,2.5,2.5,0,0,1-.9.68,4.71,4.71,0,0,1-1.08.32,6.27,6.27,0,0,1-1.15.14c-.22,0-.22,0-.43,0-.5,0-1-.11-1.47-.11s-1,.11-1.51.11a8.3,8.3,0,0,0-1.33,0c-.43,0-.86,0-1.33.11a4.48,4.48,0,0,0-1.33.43,3,3,0,0,0-1.08.9,3.63,3.63,0,0,0-.65,1.29c-.07.4,0,.9-.07,1.44a4.4,4.4,0,0,0,.33,1.51,2.94,2.94,0,0,0,.75,1.26,3.74,3.74,0,0,0,1.26.79,5.83,5.83,0,0,0,2,.32c.11,0,.25-.07.36-.07.65,0,1.26.11,1.9.11s1-.11,1.55-.11h1.58c.4,0,.79,0,1.22.07s.79.14,1.22.21a4.85,4.85,0,0,1,.93.32,2.14,2.14,0,0,1,1.29,1.54,2.28,2.28,0,0,1-.79,1.87,2.63,2.63,0,0,1-1.44.65l-1,.11h-.39c-.07,0-.14,0-.22,0h-.07c-.72,0-.72,0-1.44,0s-.72,0-1.47,0-.72-.07-1.44-.07-.72,0-1.44,0h-1.44c-.5,0-1,0-1.51,0s-.86-.07-1.29-.07-.86,0-1.33,0c0,0,0,0-.07,0-.39,0-.75,0-1.15,0A4.06,4.06,0,0,1,431.17,451.08Z"/><path class="cls-1" d="M186.84,520.72c.05-.4.23-.8.33-1.25s.13-.85.26-1.28.35-.78.5-1.17.37-.74.58-1.14.39-.73.63-1.11.46-.67.7-1,.5-.68.77-1,.58-.55.9-.83a7.83,7.83,0,0,1,1-.77,7.54,7.54,0,0,1,1-.68c.35-.2.74-.41,1.11-.57l1.09-.39c.37-.09.75-.15,1.12-.24a10.4,10.4,0,0,1,1.12-.24,11.54,11.54,0,0,1,1.15,0c.4,0,.75-.08,1.14-.07s.74.17,1.14.22.75.14,1.12.25.71.22,1.07.36.69.28,1.07.45.31,0,.6.18.86.39,1.31.63a8.25,8.25,0,0,1,1.21.78,8.94,8.94,0,0,1,.85.71,4.86,4.86,0,0,1,.71.81,6.38,6.38,0,0,1,.44.69,2.25,2.25,0,0,1,.23,1,1.65,1.65,0,0,1-.39.93,2.15,2.15,0,0,1-.87.55,1.83,1.83,0,0,1-1,.07,3.1,3.1,0,0,1-1-.33,8.74,8.74,0,0,1-.87-.66c-.34-.32-.64-.68-1-.92a10,10,0,0,0-1.14-.65,9.47,9.47,0,0,0-1.1-.59,8.14,8.14,0,0,0-1.2-.29,5.06,5.06,0,0,0-1.23-.16,5.67,5.67,0,0,0-1.24.09,8,8,0,0,0-1.19.34,11.26,11.26,0,0,0-1.14.43,8.19,8.19,0,0,0-1.12.6,10.17,10.17,0,0,0-.92.82,7.22,7.22,0,0,0-.84.85,8,8,0,0,0-.74,1,7.8,7.8,0,0,0-.61,1.06c-.18.41-.32.77-.45,1.13a5.39,5.39,0,0,0-.39,1.16,6.69,6.69,0,0,0-.21,1.17c0,.41,0,.77,0,1.13a7.89,7.89,0,0,0,.14,1.13,7.13,7.13,0,0,0,.22,1.11,10.42,10.42,0,0,0,.36,1.07,4.91,4.91,0,0,0,.56,1,5.39,5.39,0,0,0,.65.94c.24.27.6.47.88.72a6.64,6.64,0,0,0,.89.69,4.49,4.49,0,0,0,1.26.67,6.93,6.93,0,0,0,1.38.26c.33.05.62.06.9.08a7,7,0,0,0,.9,0,4.2,4.2,0,0,1,1.11.21,4.35,4.35,0,0,1,1,.37,1.84,1.84,0,0,1,.75.79,1.78,1.78,0,0,1-.19,2.06,2.13,2.13,0,0,1-.93.55,10,10,0,0,1-1.36.27,6.85,6.85,0,0,1-1.38,0,6.77,6.77,0,0,1-1.07-.16c-.36-.07-.7-.18-1-.28l-1-.37c-.34-.12-.67-.24-1-.39s-.74-.3-1.08-.49-.64-.45-1-.67a8.16,8.16,0,0,1-.93-.75,8,8,0,0,1-.9-.73c-.26-.28-.57-.55-.82-.86a9.31,9.31,0,0,1-.7-1c-.22-.3-.42-.65-.63-1l-.61-1a8.51,8.51,0,0,1-.41-1c-.12-.31-.12-.67-.21-1a8.52,8.52,0,0,1-.2-1,9.21,9.21,0,0,1-.15-1,5.52,5.52,0,0,1,.05-1A11.14,11.14,0,0,1,186.84,520.72Z"/><path class="cls-1" d="M238.18,535.42a6.82,6.82,0,0,1-.35,1c-.11.34-.24.67-.37,1s-.35.64-.54,1-.4.59-.59.9-.4.59-.61.87-.52.49-.79.75a4.24,4.24,0,0,1-.74.7,8.15,8.15,0,0,1-.78.63,8.75,8.75,0,0,1-.86.57,8.45,8.45,0,0,1-.9.5,11.49,11.49,0,0,1-1.12.43,11.81,11.81,0,0,1-1.12.4c-.4.09-.79.16-1.19.22s-.79.07-1.2.06-.79-.06-1.21-.09-.77,0-1.19-.06-.76-.14-1.17-.24a14.49,14.49,0,0,1-1.55-.42c-.34-.11-.65-.2-1-.33l-.94-.38a10,10,0,0,1-.93-.41,9.6,9.6,0,0,1-.89-.52c-.34-.2-.68-.4-1-.62s-.64-.45-.93-.69-.5-.59-.79-.86l-.75-.88A7.46,7.46,0,0,1,214,538a10.59,10.59,0,0,1-.47-1.08,7.25,7.25,0,0,1-.51-1.06,7.8,7.8,0,0,1-.33-1.13,11.17,11.17,0,0,1-.24-1.13c0-.38,0-.76-.08-1.14s0-.78,0-1.17,0-.77.08-1.16.13-.73.22-1.11.12-.71.22-1,.2-.65.33-1,.21-.68.33-1,.26-.63.41-.93.45-.67.65-1a7.28,7.28,0,0,1,.67-1,7.55,7.55,0,0,1,.76-.95,6.84,6.84,0,0,1,.77-.88,7.79,7.79,0,0,1,1-.65,8,8,0,0,1,1-.7,11.81,11.81,0,0,1,1.07-.57c.35-.14.75-.23,1.14-.36s.72-.24,1.1-.34a10.82,10.82,0,0,1,1.12-.21,11.11,11.11,0,0,1,1.14-.08c.38,0,.76,0,1.15,0s.75.08,1.14.13a7.11,7.11,0,0,1,1.1.25c.38.06.77.11,1.15.2s.72.19,1.08.3.69.37,1,.53.71.31,1.06.48.67.33,1,.52.66.36.94.57.53.5.82.75a9.69,9.69,0,0,1,.8.71,10.55,10.55,0,0,1,.78.8,9.17,9.17,0,0,1,.59.9c.21.31.36.64.55.94a9.73,9.73,0,0,1,.5,1,9.14,9.14,0,0,1,.33,1,9.64,9.64,0,0,1,.29,1.05c.06.39.13.78.17,1.17a7.12,7.12,0,0,1,.1,1.18c0,.37,0,.76-.08,1.15s-.11.77-.17,1.16-.17.75-.26,1.16c-.06.2-.08.44-.14.67ZM233,536a6.6,6.6,0,0,0,.56-.91,6.5,6.5,0,0,0,.37-1c.11-.34.1-.71.17-1.06s.18-.69.2-1.05a9.08,9.08,0,0,0,0-1l0-1.07c-.05-.33-.13-.69-.21-1a8.72,8.72,0,0,0-.28-1,8.58,8.58,0,0,0-.45-.95,6.38,6.38,0,0,0-.61-.93,9.7,9.7,0,0,0-.7-.84,6.1,6.1,0,0,0-.84-.69,7.06,7.06,0,0,0-.89-.62c-.31-.19-.64-.32-1-.49s-.66-.27-1-.38l0-.08-.14,0a7.53,7.53,0,0,0-1.17-.24c-.42,0-.81,0-1.18,0a11.25,11.25,0,0,0-1.22-.07,12.13,12.13,0,0,0-1.2.28,11.81,11.81,0,0,0-1.13.46,5.65,5.65,0,0,0-1.07.54,5.23,5.23,0,0,0-1,.79c-.27.29-.55.57-.79.87a8.57,8.57,0,0,0-.78.91c-.23.33-.41.71-.61,1.05s-.34.7-.49,1.09-.29.75-.38,1.12a7.7,7.7,0,0,0-.12,1.2,8.23,8.23,0,0,0,0,1.18,6.13,6.13,0,0,0,.29,2.38,3.77,3.77,0,0,0,.38,1,4.4,4.4,0,0,0,.53.91,5.72,5.72,0,0,0,.53.91,5.61,5.61,0,0,0,.77.73,7.42,7.42,0,0,0,1,.73,8.56,8.56,0,0,0,1,.65,6.3,6.3,0,0,0,2.29.83,7.32,7.32,0,0,0,2.41.22,7.7,7.7,0,0,0,1.22-.15c.4-.09.81-.21,1.19-.35a8,8,0,0,0,1.11-.49,8.27,8.27,0,0,0,1-.67,9.39,9.39,0,0,0,.94-.83c.28-.29.51-.65.77-1S232.82,536.31,233,536Z"/><path class="cls-1" d="M259.05,547.62a5.87,5.87,0,0,1-.72.8,4.83,4.83,0,0,1-.75.8,6.53,6.53,0,0,1-.95.55,9.91,9.91,0,0,1-1,.54c-.32.12-.72.14-1.07.25a7.17,7.17,0,0,1-1.14.3,7.48,7.48,0,0,1-1.19.08c-.39,0-.77-.05-1.16-.09-.18,0-.31-.15-.45-.17s-.1,0-.22,0c-.29-.05-.58-.14-.84-.19s-.72,0-1.06-.13-.65-.24-1-.36-.69-.19-1-.33a5.07,5.07,0,0,1-.75-.5c-.24-.16-.48-.36-.71-.55a4,4,0,0,1-.51-.49,2.21,2.21,0,0,1-.44-.86,1.62,1.62,0,0,1,0-1,2.36,2.36,0,0,1,.75-.83,2.24,2.24,0,0,1,1.07-.25,3.79,3.79,0,0,1,1,.15,6.16,6.16,0,0,1,1,.27l.44.26a6.66,6.66,0,0,0,1,.45,8.16,8.16,0,0,0,1,.43,6.51,6.51,0,0,0,1.09.11,7,7,0,0,0,1.14.06,4.08,4.08,0,0,0,1.17-.48,5,5,0,0,0,1-.72,2.78,2.78,0,0,0,.64-1,3.27,3.27,0,0,0,.07-1.19,2.31,2.31,0,0,0-.34-1.12,5.12,5.12,0,0,0-.85-1.09,6.24,6.24,0,0,0-1.11-.84c-.25-.13-.52-.28-.76-.44s-.48-.33-.73-.47-.63-.33-.93-.5-.56-.4-.85-.61a12,12,0,0,1-1.13-.72,10,10,0,0,1-1-.9,5.84,5.84,0,0,1-.83-1.06,7.37,7.37,0,0,1-.89-2.34,5.44,5.44,0,0,1,0-1.26c.07-.38.13-.73.23-1.07a6.34,6.34,0,0,1,.37-1,6.09,6.09,0,0,1,.43-1,10.55,10.55,0,0,1,.73-.86,6.19,6.19,0,0,1,.78-.79,4.58,4.58,0,0,1,.89-.59,6.07,6.07,0,0,1,.95-.4,8.91,8.91,0,0,1,1-.33,10.85,10.85,0,0,1,1.19-.23c.4,0,.82-.18,1.21-.2s.8.06,1.22.08a8.15,8.15,0,0,1,1.22.07c.38.07.77.23,1.18.34a8.23,8.23,0,0,1,1.13.39c.4.13.8.24,1.16.39a5.15,5.15,0,0,1,.68.58,3.94,3.94,0,0,1,.61.62,1.36,1.36,0,0,1,.26,1,1.46,1.46,0,0,1-.5.93,2.13,2.13,0,0,1-.79.55,1.89,1.89,0,0,1-.93,0c-.55-.1-1.07-.11-1.5-.22s-.76-.29-1.13-.42c-.14-.06-.1-.11-.24-.16-.35-.09-.71-.1-1.06-.16a6.29,6.29,0,0,0-1.06,0,4.44,4.44,0,0,0-1,.2,3.23,3.23,0,0,0-1,.45,3.79,3.79,0,0,0-.75.8,3.24,3.24,0,0,0-.37,1,2.57,2.57,0,0,0,.56,2.21,4.86,4.86,0,0,0,.89.89,7.93,7.93,0,0,0,.72.67c.3.18.59.38.87.52.46.27.94.47,1.4.74s.78.54,1.19.76a6.68,6.68,0,0,1,1.08.68,7.68,7.68,0,0,1,1,.88,4.36,4.36,0,0,1,.78,1,5.37,5.37,0,0,1,.6,1.16,5.31,5.31,0,0,1,.16,1.27,8.62,8.62,0,0,1,0,1.29c-.07.38-.17.78-.28,1.21a4.53,4.53,0,0,1-.34,1.2A7,7,0,0,1,259.05,547.62Z"/><path class="cls-1" d="M292.61,554.58a2.17,2.17,0,0,1-.94-.65,2.23,2.23,0,0,1-.41-1.06c0-.36-.1-.75-.11-1.11s.08-.74.1-1.12,0-.71,0-1l.07-1.07c0-.33,0-.69,0-1s.07-.68.09-1,.07-.71.1-1.06l.06-1c0-.36,0-.71.06-1s0-.8,0-1.22,0-.77,0-1.19c0-.21,0-.21,0-.41a2.3,2.3,0,0,0-.48-1.34.61.61,0,0,0-.85-.11,3.27,3.27,0,0,0-1.08,1.09,9.36,9.36,0,0,0-.56.91c-.17.32-.28.64-.45,1s-.31.63-.45,1l-.31.66-.42,1c-.14.32-.33.6-.47.92s-.19.67-.3,1-.34.6-.44.92-.2.76-.37,1.11-.34.72-.48,1.07-.23.76-.37,1.11-.4.69-.57,1a4.48,4.48,0,0,1-.71,1.29,2.13,2.13,0,0,1-.85.69,2,2,0,0,1-1,.26,2.07,2.07,0,0,1-1-.3,2.59,2.59,0,0,1-.82-.68,4,4,0,0,1-.53-1,9.78,9.78,0,0,1-.34-1.24c-.15-.45-.3-.85-.43-1.24s-.08-.63-.15-.93-.23-.58-.3-.88-.16-.75-.26-1.12-.1-.75-.19-1.14-.28-.7-.38-1.06l-.29-1.09c-.1-.3-.11-.6-.18-.9l-.29-1c-.1-.36-.16-.69-.26-1s-.32-.61-.47-1a4.06,4.06,0,0,0-.78-1.3,2.85,2.85,0,0,0-.48-.36.41.41,0,0,0-.51.06,2.14,2.14,0,0,0-.63,1.09,10.09,10.09,0,0,0-.3,1c-.05.35,0,.36,0,.71l-.15,1c0,.33-.16.61-.18.94s0,.65,0,1-.14.73-.16,1.09,0,.74,0,1.09-.08.74-.1,1.09,0,.74,0,1.1-.11.83-.14,1.21,0,.83,0,1.25a6.16,6.16,0,0,1-.29,1.23,2,2,0,0,1-.69,1.11,1.77,1.77,0,0,1-1.25.46,1.92,1.92,0,0,1-1.27-.56,2,2,0,0,1-.67-1.2,6.21,6.21,0,0,1-.08-1,5.84,5.84,0,0,1,0-1c0-.38,0-.8,0-1.19s.08-.77.1-1.15,0-.8,0-1.19l.07-1.15c0-.38.17-.79.19-1.17s-.07-.78,0-1.16.11-.8.13-1.18.08-.77.1-1.15.08-.8.11-1.18,0-.77,0-1.16,0-.8,0-1.19c.08-1.33.08-2.7.23-4.05a3.79,3.79,0,0,1,1.17-2.57c1.6-1.38,5.37-.85,6.6.83a5.73,5.73,0,0,1,.7,1.56c.82,2.55,1.37,5.13,2.13,7.71l.38,1.09a11.25,11.25,0,0,0,.38,1.09,3.82,3.82,0,0,0,.42.95,2.76,2.76,0,0,0,.57.84,1.33,1.33,0,0,0,1,.45,1.57,1.57,0,0,0,1-.35,4.66,4.66,0,0,0,.83-.87,5.94,5.94,0,0,0,.57-1c.18-.46.24-.43.41-.89s.18-.46.36-.93a8.15,8.15,0,0,0,.41-.89c.17-.37.29-.81.46-1.19.6-1.48,1.22-2.92,1.82-4.4a5.46,5.46,0,0,1,2-2.75c2.13-1.35,6.12-1,6.65,1.9.3,1.47-.14,3.17-.23,4.65,0,.38,0,.74,0,1.1s-.1.71-.13,1.09l-.07,1.07c0,.71,0,.71,0,1.39l-.09,1.39c0,.74-.14.73-.18,1.44,0,.38,0,.77,0,1.13s0,.74,0,1.13,0,.74,0,1.1-.11.77-.13,1.12,0,.74,0,1.13l-.07,1.09a5.4,5.4,0,0,1-.29,1.38,2.21,2.21,0,0,1-1,1.33,2.17,2.17,0,0,1-1,.21A2.12,2.12,0,0,1,292.61,554.58Z"/><path class="cls-1" d="M305.37,554.5a2.57,2.57,0,0,1-1-.9,3,3,0,0,1-.51-1.19c0-.23,0-.48,0-.77s-.16-.76-.18-1.18,0-.8,0-1.19,0-.8,0-1.22-.07-.8-.09-1.18,0-.8,0-1.19-.16-.79-.19-1.21,0-.8,0-1.19l-.07-1.18c0-.41-.07-.8-.1-1.21s0-.8,0-1.19-.1-.8-.12-1.18l-.07-1.21c0-.38,0-.8,0-1.18s-.07-.8-.09-1.19,0-.8,0-1.22a6.82,6.82,0,0,1,0-1.16,2.56,2.56,0,0,1,.55-1.31,2.43,2.43,0,0,1,1.24-.66,8.34,8.34,0,0,1,1-.23,5.76,5.76,0,0,1,1-.08h0c.38,0,.77-.1,1.12-.12s.77-.07,1.15-.09.77,0,1.16,0,.74,0,1.13,0l1.15-.09c.38,0,.74-.07,1.12-.09s.77,0,1.16,0,.59,0,.89,0a4.58,4.58,0,0,1,.89,0,3.36,3.36,0,0,1,.85.34,2,2,0,0,1,.77.58,1.65,1.65,0,0,1,.29.93,1.9,1.9,0,0,1-.34.85,1.93,1.93,0,0,1-.65.63,3.46,3.46,0,0,1-1.55.35c-.35,0-.35.14-.67.16s-.66-.05-1,0-.62.06-.94.08l-1,.05A8.87,8.87,0,0,0,311,534c-.41.05-.79.16-1.23.25a4,4,0,0,0-1.25.45,2.42,2.42,0,0,0-.83,1.05,3.11,3.11,0,0,0-.19,1.32c0,.09.07.2.08.29s0,.3,0,.45a3.17,3.17,0,0,0,.32.93,2.94,2.94,0,0,0,.55.8,2.6,2.6,0,0,0,.92.45,5.46,5.46,0,0,0,1.26.2,9.21,9.21,0,0,0,1.3,0c.36,0,.68,0,1,0l1-.06c.32,0,.68,0,1,0,.06,0,.05-.09.11-.1.27,0,.54.06.83.07a4,4,0,0,1,1,.24,2.08,2.08,0,0,1,.83.55,1.87,1.87,0,0,1,.41.93,1.58,1.58,0,0,1-.31.91,2,2,0,0,1-.71.6,4,4,0,0,1-.87.31,5.19,5.19,0,0,1-.94.17c-.18,0-.18,0-.35.05-.41,0-.8,0-1.22,0s-.82.13-1.24.16a7,7,0,0,0-1.09.09c-.35,0-.71.07-1.09.15a3.69,3.69,0,0,0-1.08.42,2.48,2.48,0,0,0-.85.79,3,3,0,0,0-.47,1.09c0,.33,0,.74,0,1.19a3.65,3.65,0,0,0,.34,1.23,2.45,2.45,0,0,0,.68,1,3.1,3.1,0,0,0,1.07.59,4.83,4.83,0,0,0,1.7.17c.09,0,.2-.07.29-.08.53,0,1,0,1.57,0s.85-.14,1.27-.16l1.3-.07c.32,0,.65,0,1,0s.66.08,1,.12a3.93,3.93,0,0,1,.78.22,1.76,1.76,0,0,1,1.13,1.21,1.88,1.88,0,0,1-.57,1.58,2.18,2.18,0,0,1-1.15.6l-.85.14-.32,0c-.06,0-.12,0-.18,0H317c-.59,0-.59,0-1.19,0s-.59.06-1.21.1-.59,0-1.19,0-.59.06-1.18.1l-1.18.06c-.41,0-.83.08-1.24.1s-.71,0-1.07,0-.71.07-1.09.09c0,0,0,0-.06,0-.32,0-.62,0-.95,0A3.36,3.36,0,0,1,305.37,554.5Z"/><path class="cls-1" d="M331.39,533a2.2,2.2,0,0,0-.76-.63,3.14,3.14,0,0,0-.95-.3,8,8,0,0,0-1.23,0c-.27,0-.59.06-.89,0s-.58,0-.88,0a2,2,0,0,1-1.15-.24,1.65,1.65,0,0,1-.67-1,1.53,1.53,0,0,1,.32-1.19,2,2,0,0,1,1-.7c.37-.12.71-.26,1.08-.38s.76-.15,1.14-.21a0,0,0,0,0,0,0c.35-.05.71-.08,1.09-.14s.73-.14,1.08-.2.73-.14,1.08-.2l1.08-.17c.38-.06.74-.08,1.09-.14s.72-.17,1.1-.23l1.08-.17,1.09-.14c.35-.05.73-.14,1.08-.19s.68-.08,1-.1l1-.06c.21,0,.2.12.41.12a1.88,1.88,0,0,1,1.16.33,1.47,1.47,0,0,1,.72,1,1.51,1.51,0,0,1-.33,1.16,2.29,2.29,0,0,1-1,.64c-.4.12-.81.21-1.18.33a3.3,3.3,0,0,0-.52.14.89.89,0,0,0-.25.1,2.65,2.65,0,0,0-.52.14,4.14,4.14,0,0,0-1.13.63,3.21,3.21,0,0,0-.68,1.06,3.59,3.59,0,0,0-.26,1.24c0,.39.09.77.11,1.09s.06.77.11,1.12,0,.78.09,1.19l.18,1.17c.06.38.15.76.21,1.17s.21.75.27,1.16.06.77.12,1.18.09.77.15,1.18.15.76.21,1.17.06.77.12,1.18c.09.59.15.58.24,1.13s.06.59.15,1.18c.06.41.18.78.21,1.17a3.85,3.85,0,0,1,0,.9,2.13,2.13,0,0,1-.49,1.28,1.79,1.79,0,0,1-1.16.66s-.06,0-.09,0a2.08,2.08,0,0,1-1.39-.24,2.41,2.41,0,0,1-.79-1.2l-.35-1.09c-.09-.38-.18-.75-.24-1.13l-.17-1.11c0-.38-.11-.73-.17-1.11l-.17-1.11-.17-1.11c-.09-.56,0-.57-.12-1.15l-.18-1.14c-.09-.59-.15-.58-.24-1.16-.05-.35-.09-.74-.14-1.12s-.17-.72-.23-1.1-.09-.77-.14-1.12l-.18-1.14a5.35,5.35,0,0,0-.43-1.58A3,3,0,0,0,331.39,533Z"/><path class="cls-1" d="M352.18,534.58c-.19-.81-.16-.81-.33-1.66-.07-.32-.21-.65-.29-1l-.24-1-.23-1c-.08-.34-.19-.66-.27-1s0-.66-.08-1l-.13-.94c0-.18-.07-.17-.11-.34a2.19,2.19,0,0,1,.52-1.52,1.88,1.88,0,0,1,1.45-.71,1.92,1.92,0,0,1,1.48.59,3.23,3.23,0,0,1,.77,1.46c.08.35.2.71.28,1.06s.08.74.17,1.11.26.82.36,1.25.14.85.24,1.26.24.86.33,1.26.23.83.33,1.26.15.48.26,1,.15.48.27,1l.23,1c.12.49.06.5.17,1s.11.73.2,1.11l.25,1.07c.08.35.23.71.31,1.05s.14.73.23,1.1.23.71.31,1.05l.25,1.07a7.62,7.62,0,0,1,.14,1.37,2.08,2.08,0,0,1-.33,1.3,1.81,1.81,0,0,1-1.12.78,1.55,1.55,0,0,1-.37,0,1.76,1.76,0,0,1-1.13-.28,2,2,0,0,1-.89-.82c-.14-.33-.24-.74-.36-1.13s-.26-.7-.35-1.1-.13-.79-.22-1.2-.21-.77-.3-1.15l-.28-1.18-.27-1.15c-.09-.4-.22-.8-.31-1.18s-.21-.77-.31-1.18c-.15-.64-.09-.65-.25-1.31s-.22-.65-.37-1.31Z"/><path class="cls-1" d="M366.87,537.43c-.23-.33-.37-.75-.6-1.14s-.49-.71-.68-1.12-.27-.82-.43-1.2-.23-.8-.35-1.23-.21-.81-.29-1.25-.11-.81-.15-1.2-.09-.84-.1-1.25,0-.8.1-1.22a7.57,7.57,0,0,1,.19-1.22,7.79,7.79,0,0,1,.29-1.19c.12-.38.27-.81.42-1.17l.54-1c.21-.32.45-.62.66-.94a10.57,10.57,0,0,1,.66-.94,11.45,11.45,0,0,1,.87-.76c.28-.28.5-.57.79-.82s.66-.37,1-.61.65-.4,1-.58.68-.32,1-.47.69-.26,1.09-.39.25-.18.56-.28.9-.3,1.39-.43a8.32,8.32,0,0,1,1.42-.25,9.21,9.21,0,0,1,1.11-.05,5,5,0,0,1,1.07.11,6.81,6.81,0,0,1,.79.21,2.26,2.26,0,0,1,.85.59,1.64,1.64,0,0,1,.35.95,2.17,2.17,0,0,1-.26,1,1.85,1.85,0,0,1-.7.73,3.09,3.09,0,0,1-1,.45,8.72,8.72,0,0,1-1.09.11c-.47,0-.93-.07-1.32,0a10.2,10.2,0,0,0-1.28.3,9.63,9.63,0,0,0-1.21.31,8,8,0,0,0-1.08.61,5,5,0,0,0-1,.71,5.6,5.6,0,0,0-.85.91,8.09,8.09,0,0,0-.65,1.06,12,12,0,0,0-.54,1.09A8.43,8.43,0,0,0,369,527a10.07,10.07,0,0,0-.12,1.23,7.13,7.13,0,0,0,0,1.2,10.24,10.24,0,0,0,.4,2.43c.14.42.29.78.44,1.14a5.26,5.26,0,0,0,.49,1.12,6.59,6.59,0,0,0,.65,1c.26.32.51.58.75.84a7.66,7.66,0,0,0,.87.74,7.16,7.16,0,0,0,.91.67,10.59,10.59,0,0,0,1,.54,4.89,4.89,0,0,0,1.09.36,5.36,5.36,0,0,0,1.12.25c.36,0,.76-.06,1.13-.06a6.7,6.7,0,0,0,1.13-.09,4.54,4.54,0,0,0,1.38-.36,7,7,0,0,0,1.19-.74c.28-.19.5-.38.72-.55a7.05,7.05,0,0,0,.67-.6,7.13,7.13,0,0,1,2-1,1.83,1.83,0,0,1,1.09.08,1.78,1.78,0,0,1,1.26,1.64,2.14,2.14,0,0,1-.31,1A9.73,9.73,0,0,1,386,539a6.85,6.85,0,0,1-1,.91,6.73,6.73,0,0,1-.89.61c-.31.2-.64.34-1,.5l-1,.43c-.33.14-.66.28-1,.39s-.75.28-1.12.37-.78.1-1.16.17a8.24,8.24,0,0,1-1.19.08,8,8,0,0,1-1.16.07c-.38,0-.79,0-1.18-.08a9.21,9.21,0,0,1-1.17-.24c-.37-.07-.75-.19-1.12-.28l-1.14-.34a9,9,0,0,1-1-.43c-.3-.15-.54-.41-.86-.62a8.44,8.44,0,0,1-.82-.6,9.13,9.13,0,0,1-.81-.67,5.58,5.58,0,0,1-.67-.81A11.38,11.38,0,0,1,366.87,537.43Z"/><path class="cls-1" d="M408.16,525.5a5.69,5.69,0,0,1-.13,1.07,4.91,4.91,0,0,1-.16,1.08,6.72,6.72,0,0,1-.46,1,10.23,10.23,0,0,1-.49,1c-.2.28-.51.52-.74.82a7.06,7.06,0,0,1-.76.9,7.42,7.42,0,0,1-.93.75c-.33.21-.67.4-1,.58-.16.07-.33.05-.47.11s-.06.09-.17.14c-.27.12-.55.22-.8.33s-.61.37-.95.49-.67.17-1,.26-.67.24-1,.29a5.1,5.1,0,0,1-.9,0c-.29,0-.6,0-.9,0a4.17,4.17,0,0,1-.7-.11,2.24,2.24,0,0,1-.86-.46,1.61,1.61,0,0,1-.55-.86,2.34,2.34,0,0,1,.15-1.11,2.24,2.24,0,0,1,.73-.82,3.84,3.84,0,0,1,.91-.44,6.08,6.08,0,0,1,1-.33l.51,0a6.72,6.72,0,0,0,1.06-.18,8.12,8.12,0,0,0,1.1-.23,6.6,6.6,0,0,0,1-.53,6.89,6.89,0,0,0,1-.6,4.08,4.08,0,0,0,.69-1.06,5,5,0,0,0,.42-1.17,2.76,2.76,0,0,0,0-1.18,3.28,3.28,0,0,0-.62-1,2.3,2.3,0,0,0-.91-.73,5.16,5.16,0,0,0-1.32-.41,6.07,6.07,0,0,0-1.39-.05c-.28,0-.59.07-.88.07s-.58,0-.87,0-.71.09-1.05.12-.69,0-1,0a12.23,12.23,0,0,1-1.34.05,10.57,10.57,0,0,1-1.32-.18,5.92,5.92,0,0,1-1.28-.4,4.9,4.9,0,0,1-1.09-.61,5,5,0,0,1-1-.79,5.5,5.5,0,0,1-.7-1c-.16-.35-.3-.67-.42-1a6.49,6.49,0,0,1-.29-1.07,5.93,5.93,0,0,1-.24-1.1,10.81,10.81,0,0,1,.11-1.12,6.32,6.32,0,0,1,.19-1.09,4.74,4.74,0,0,1,.4-1,6.11,6.11,0,0,1,.55-.87,9.36,9.36,0,0,1,.63-.84,10.88,10.88,0,0,1,.84-.87c.3-.27.57-.62.88-.85s.69-.41,1-.63a7.92,7.92,0,0,1,1-.64c.35-.16.76-.25,1.16-.39a8,8,0,0,1,1.15-.33c.4-.12.79-.26,1.18-.34a5.08,5.08,0,0,1,.88.09,3.81,3.81,0,0,1,.86.16,1.36,1.36,0,0,1,.81.71,1.46,1.46,0,0,1,.12,1.05,2.11,2.11,0,0,1-.34.9,1.9,1.9,0,0,1-.76.54c-.51.23-.94.52-1.35.68s-.79.19-1.16.3c-.15,0-.15,0-.29,0-.34.12-.64.32-1,.47a6.46,6.46,0,0,0-.86.62,4.44,4.44,0,0,0-.73.75,3.15,3.15,0,0,0-.55.93,3.77,3.77,0,0,0-.16,1.08,3.25,3.25,0,0,0,.28,1,2.91,2.91,0,0,0,.64.91,2.86,2.86,0,0,0,1.08.59,4.9,4.9,0,0,0,1.24.22,7.89,7.89,0,0,0,1,.14c.35,0,.7,0,1-.07.53,0,1-.14,1.57-.19s.94,0,1.41-.05a6.7,6.7,0,0,1,1.28-.06,7.62,7.62,0,0,1,1.31.16,4.34,4.34,0,0,1,1.22.39,5.4,5.4,0,0,1,1.16.62,5.26,5.26,0,0,1,.85.95,8.57,8.57,0,0,1,.71,1.08c.16.35.3.74.46,1.16a4.5,4.5,0,0,1,.41,1.18A7,7,0,0,1,408.16,525.5Z"/><path class="cls-1" d="M360.31,487.49H303.94l7.08-7.08,3-3c1.66-1.66-2.14-5.49-3.75-3.87-2.12.75-4.84,4.84-6.41,6.41-1,1-5.05,6.4-6.4,6.4S292,480.92,291,480c-1.57-1.57-4.29-5.65-6.41-6.41-1.61-1.62-5.41,2.21-3.75,3.87l3,3,7.08,7.08H241.75c-2.35,0-9.88-1.26-9.88,2.69s6.87,2.69,9.21,2.69h49.85L283.85,500l-3,3c-1.66,1.66,2.14,5.48,3.75,3.87,2.12-.75,4.84-4.84,6.41-6.41,1-1,5.05-6.41,6.41-6.41s5.45,5.45,6.4,6.4c1.57,1.57,4.29,5.65,6.41,6.41,1.61,1.61,5.41-2.21,3.75-3.87l-3-3-7.08-7.08h56C363.57,492.88,364.06,487.49,360.31,487.49Z"/><path class="cls-2" d="M265.51,158.81a34.1,34.1,0,0,0-10.79-20.22c-2.59-2.34-5.21-4.66-7.82-7a3.3,3.3,0,0,1-.05-5.34,28.33,28.33,0,0,1,2.41-1.71c2.18-1.57,4.36-3.13,6.53-4.72.86-.63,1.7-1.31,2.53-2,3.16-2.55,6.09-5.25,8-8.95,3.32-6.38,5.74-12.94,4.71-20.31A11.31,11.31,0,0,1,271.1,87a34.76,34.76,0,0,0-3.8-16.89c-1.1-2-2.55-3.91-3.59-6-1.64-3.3-3.37-6.38-6.26-8.88-2.71-2.33-5-5.1-8.24-6.85a44.14,44.14,0,0,0-4.57-2.26c-3.72-1.51-7.43-3-11.23-4.33-3.56-1.21-7.22-2.23-11.07-1.46a2.45,2.45,0,0,1-.54,0L211.91,40c-6.05,1.27-12,2.63-18,3.74-6.31,1.17-11.62,4.65-17.37,7.1a4.87,4.87,0,0,0-1,.84c-1.79,1.48-3.5,3.07-5.39,4.42-3,2.14-5.9,4.33-8,7.49-.76,1.17-2,2-3,3-1.12,1.26-2.49,2.45-3.14,3.94-1.37,3.16-3.42,5.87-5.13,8.8-1.57,2.7-2.85,5.57-4.19,8.39a4,4,0,0,0-.13,1.59A16.85,16.85,0,0,1,145,95.84a14.84,14.84,0,0,0-1.5,5.38c-.09,5.19.12,10.39.36,15.58.07,1.59.78,3.15.92,4.74a51.62,51.62,0,0,0,2.11,10c1.1,3.74,3.49,6.62,5.79,9.58a2.94,2.94,0,0,0,3.89.8,11.88,11.88,0,0,0,2.4-1.67,35.91,35.91,0,0,1,3.57-3.25,12.7,12.7,0,0,0,4.59-5.46,2.48,2.48,0,0,0,0-2.5,21.81,21.81,0,0,1-1.71-3.93c-.75-2.58-1.43-5.19-1.94-7.83s-1.21-5.16-1-7.67a62,62,0,0,1,4.07-18.85,42.81,42.81,0,0,1,6.95-12c1.51-1.75,3.37-3.18,4.91-4.91,3.25-3.66,6.75-6.92,11.44-8.69,4.53-1.71,8.94-3.76,13.53-5.23,4.18-1.34,8.52-2.22,13-1.56,2,.3,4.05.72,6.09.92A33.24,33.24,0,0,1,237,64.48c1.06.67,2,1.57,3.06,2.19a13.7,13.7,0,0,1,5.38,5.88,39.77,39.77,0,0,1,4.39,13.18,34.09,34.09,0,0,1-1.41,14.06,10.8,10.8,0,0,1-1.71,3.63,54,54,0,0,1-6,6.79,40.76,40.76,0,0,1-7.58,5.48c-3.81,2.1-8.16,2.7-12.41,3.32a32.82,32.82,0,0,1-7,0c-2.26-.16-4.53-2.52-4.17-4.44a75,75,0,0,1,2.79-12c1.41-3.83,3.64-7.38,5.66-11a42.52,42.52,0,0,1,3.12-4c1.54-2.08,3.05-4.19,4.52-6.32a2.76,2.76,0,0,0,0-3.06c-.85-1.58-1.66-3.18-2.45-4.79a4.75,4.75,0,0,0-4.82-2.77,14.68,14.68,0,0,0-2.91.46c-3.12.76-5.65,2.57-8.15,4.5a43,43,0,0,0-10,10.43c-3.46,5.29-5.55,11.26-7.49,17.2-2.5,7.67-4.51,15.51-6.71,23.27-1.61,5.69-4,11.17-4.83,17.08a10.67,10.67,0,0,1-.49,1.54c-2.16,6.93-4.27,13.88-6.48,20.8a73.38,73.38,0,0,1-2.82,7.55c-1.77,4-5.35,5-9.12,2.88a40.39,40.39,0,0,0-4.08-2.08,46.92,46.92,0,0,0-15.65-3.66c-1.78-.11-3.58,0-5.37,0a25,25,0,0,0-15.13,4.92c-4.55,3.41-8.5,7.39-11,12.88-2.22,4.83-2.09,9.71-2.47,14.65a5.21,5.21,0,0,0,.79,2.26c1,2.2,2.09,4.37,3.11,6.57A23.13,23.13,0,0,0,124.29,225c3.54.94,7.09.93,10.64,1.33a22.16,22.16,0,0,0,8-.65,9.55,9.55,0,0,1,3.44-.48,10.22,10.22,0,0,0,6.22-1.3c2.93-1.55,5.85-3.14,8.6-5a52,52,0,0,0,5.1-4.31c2.1-1.81,4.34-3.49,6.24-5.48a5.58,5.58,0,0,1,6.09-1.58,8,8,0,0,1,1.75.69,50.08,50.08,0,0,1,6,3.54c3,2.33,6.63,3.47,10,5,1.88.82,4,1.2,5.82,2A40.29,40.29,0,0,0,217.65,222c5.78.19,11.51.17,17-2,3.74-1.51,7.47-3.07,11.1-4.81a15.12,15.12,0,0,0,6.4-5.17,19.1,19.1,0,0,1,3.39-4.48,14.54,14.54,0,0,0,4.74-6,7.31,7.31,0,0,1,.95-1.63c2.74-3.79,3.85-8.18,4.89-12.64s.31-9.27.67-13.9a36.78,36.78,0,0,0-.13-6.44C266.41,162.84,265.86,160.84,265.51,158.81Zm-3.43-76.48c.15,0,.39.22.68.41-.26.25-.43.54-.61.55s-.51-.28-.5-.42A.72.72,0,0,1,262.08,82.33Zm-.62,5.34a1.37,1.37,0,0,1,1.81,1.06c.06.28-.48,1-.56.94a19.38,19.38,0,0,1-2.17-1C261,88.12,261.22,87.73,261.47,87.68ZM234.4,56.89a1.36,1.36,0,0,1-1-.88c-.09-.9.45-1.47,1.72-1.6.24.29.88.7.9,1.14C236.06,56.49,235.24,56.92,234.4,56.89Zm19.53,16a4,4,0,0,1,1.5.33,1,1,0,0,1,.37.85c0,.25-.42.44-.65.66a6.24,6.24,0,0,1-1.59-.5c-.29-.19-.39-.68-.58-1A2.85,2.85,0,0,1,253.93,72.94Zm-40.6,14c.93-.25,1.47.27,1.83,1.26a6.77,6.77,0,0,1-.5.69,15.44,15.44,0,0,1-1.81-1.21S213.11,87,213.33,87Zm-70.6,134.88c-.24-.1-.36-.49-.53-.76.3-.12.62-.36.89-.32s.43.39.88.84C143.33,221.74,143,221.93,142.73,221.83Zm11.14-23.47a6.06,6.06,0,0,0-1.08,1.53,11.07,11.07,0,0,1-7.6,5.86,47.73,47.73,0,0,0-5.33,1.82c-.51.17-1,.29-1.38.39-3.62,0-7-.13-9.79-2.6a34.08,34.08,0,0,1-3.49-2.86c-2-2.28-1.17-4.91-.44-7.41,1.22-4.21,3.84-6.93,8.33-7.76,2.07-.38,4.06-1.57,6.23-.95q4.89,1.41,9.68,3.15a40.2,40.2,0,0,1,3.51,2C154.77,192.58,156,196.45,153.87,198.36ZM173,180.09c.09-.07.59.44.82.61-.13,1.18-.77,1.62-1.65,1.61-.28,0-.55-.47-.82-.73A16.09,16.09,0,0,1,173,180.09Zm-2.38,3.78c.18-.07.52.26,1,.53-.48.33-.73.63-1,.64s-.54-.27-.81-.42C170.13,184.36,170.35,184,170.66,183.88Zm-1.79,20.31a2.31,2.31,0,0,1-1.17,1c-.25.09-.67-.32-1-.51l1.46-1.76C168.49,203.49,169,204,168.87,204.19Zm.41-3a1.26,1.26,0,0,1-1.09.54,1.18,1.18,0,0,1-.63-1c.28-1.73-.6-1.62-1.87-1.49-1.92.18-2.38-.4-2.26-2.34a5.4,5.4,0,0,1,.27-1.85,1.75,1.75,0,0,1,1.14-.9,4.62,4.62,0,0,1,5.26,4A27.27,27.27,0,0,1,169.28,201.17Zm2.89-2.17a7,7,0,0,1-1.54-1.33c-.09-.15.5-1,.8-1a4.27,4.27,0,0,1,1.58.57Zm3.09-11.59c-.29.39-1.28.74-1.57.55a9.45,9.45,0,0,1-1.71-2c.47-.71.73-1.43,1.22-1.7.25-.14,1.05.43,1.4.85C175.16,185.72,175.94,186.5,175.26,187.4Zm1.73-8.33c.21-.25.37-.62.63-.71s.56.17,1.15.38c-.49.41-.72.76-1,.78S177.27,179.23,177,179.07Zm1.29,3.42c-.14-1,.78-1.32,1.58-1.32a4.68,4.68,0,0,1,1.56.61l-1.57,2.28C179.12,183.35,178.36,183,178.29,182.5Zm1.78,8c-.58-.57-1.12-.85-1.21-1.24a1.18,1.18,0,0,1,1.31-1.53c.46,0,.9.56,1.35.86Zm50.58-59.1a3.9,3.9,0,0,1,1.19.19c-.46.45-.66.79-.9.82s-.48-.28-.73-.45C230.35,131.8,230.47,131.48,230.65,131.43Zm-6.08,2.22a4.63,4.63,0,0,1,2-1.46c.17-.09.69.52,1.31,1a12.75,12.75,0,0,1-1.59,2.38C225.89,135.93,224.23,134.2,224.56,133.65ZM209.49,95.83l.78,1c-.19.14-.47.45-.54.4a5.82,5.82,0,0,1-.87-.74ZM208,127.66c.19,0,.41.22.69.4l-.46.64-.71-.53C207.68,128,207.83,127.68,208,127.66Zm-2.54-17.52a13.63,13.63,0,0,1-2.1,1.14,1.42,1.42,0,0,1-2-.61c-.26-.46-.59-.88-.85-1.34s-1-1.38-.81-1.72c.32-.6,1.16-.92,1.56-1.2,1.9,0,3.38.26,4.49,1.48A1.33,1.33,0,0,1,205.47,110.13Zm-3.92,7.27c-.6-.63-1.18-1-1.21-1.32a4.6,4.6,0,0,1,.52-1.64,4.84,4.84,0,0,1,1.06,1.28C202,116.08,201.74,116.6,201.55,117.4Zm-2-14.72a3,3,0,0,1,.8-.09l.05-.26a30.66,30.66,0,0,1,3.07.57,1.36,1.36,0,0,1,.81.94c0,.25-.49.65-.83.83a4.27,4.27,0,0,1-4.14,0c-.46-.25-.72-.88-1.07-1.34C198.63,103.12,199.06,102.87,199.51,102.68Zm-3.91,18.73c2.58-.93,5.35-1.17,7.82-2.51,1.18-.64,2-.15,2.57,1.13a13.6,13.6,0,0,1,.59,1.71c.21,2.49-.86,3.36-2.88,2.51-1.66-.7-2.88-.6-3.94,1-.22.33-1.05.33-1.61.35a12.82,12.82,0,0,0-1.73-.18c-1.37.25-1.79-.59-2-1.61A1.83,1.83,0,0,1,195.59,121.41Zm.64,14.09c-.62.09-1.23.21-1.85.28a5,5,0,0,1-4.8-2.64,1.39,1.39,0,0,1,.07-1.21,1.43,1.43,0,0,1,1.18-.21c1.29.28,2.57.66,3.85,1,.34.09.89.3,1,.17,1.51-1.72,2.73.17,4.07.33a1.17,1.17,0,0,1,.68.93,1.29,1.29,0,0,1-.78.93c-1.13.22-2.28.27-3.43.38Zm-2.09,7.32a6.85,6.85,0,0,1-.7,1.58,1.56,1.56,0,0,1-2.17.14c-.87-.52-2.31-.67-2.23-2a5.53,5.53,0,0,1,1.32-2.41,1,1,0,0,1,1-.06C192.3,141,193.19,141.9,194.13,142.82Zm2.63-15.63c.88-.38,1.71-.5,2.35.43.2.29.43.57.6.87.69,1.18.38,1.8-1.18,2-.25,0-.69,0-1.12-.08-.92-.12-1.78-.36-1.94-1.46S196,127.52,196.76,127.19Zm-6.52-12.12c.38.33.8.53.8.73a.93.93,0,0,1-.55.71.87.87,0,0,1-.76-.43C189.67,115.84,190,115.53,190.25,115.06ZM189.87,126c1.74-1.28,2.81-1.49,3.83-.58.62.55.84,1.15,0,1.76s-1.68,1.26-2.76,2.08a9.33,9.33,0,0,1-1.72-1.49C188.72,127,189.22,126.46,189.87,126Zm.6,20.41c1.08-.12,1.55.29,1.54,1.4l-1.19,1.52-1.79-2.1C189.5,146.92,190,146.44,190.46,146.39Zm-.18,9.35c0,.19-.32.32-.5.48-.11-.22-.32-.44-.31-.64s.27-.35.52-.64C190.14,155.31,190.33,155.55,190.28,155.74Zm-4-2.89c.09-.55.75-1,1.15-1.51l1.55,1.43c-.48.77-.69,1.51-1.18,1.8S186.16,153.8,186.32,152.85Zm-1.48,8.22c-.23-1,.66-1.2,1.34-1.26.38,0,.81.38,1.21.59l-1.22,1.81C185.54,161.69,184.92,161.44,184.84,161.07Zm50.78,45.29c0-.27.39-.5.78-1,.26.48.57.79.51,1a1,1,0,0,1-.71.59C236,207,235.6,206.57,235.62,206.36Zm1,7-.76-.82c.18-.15.41-.46.54-.42a3.27,3.27,0,0,1,.83.59Zm7.79-34.5a20.69,20.69,0,0,1-.76,2.56c-1,2.5-1.79,5.07-3,7.46a16.3,16.3,0,0,1-3.26,4.54c-4.81,4.55-10.42,7.52-17.16,8-.45,0-.89.09-1.52.15a19.05,19.05,0,0,1-9.4-.5,3.3,3.3,0,0,0-.79-.17c-5.76-.27-10.62-2.92-15.42-5.79-.76-.46-1.66-.67-2.45-1.07-3.11-1.56-5.7-4.7-4.16-8.49,1.28-3.15,2.69-6.24,4-9.36a15.63,15.63,0,0,0,1-2.46c1.1-4.62,2-9.28,4.39-13.5a12.77,12.77,0,0,0,.79-2.84c1.63-5.95,3.25-11.9,4.91-17.85a7.27,7.27,0,0,1,.86-1.95c2.31-3.6,3.8-4.1,7.89-2.76a14.28,14.28,0,0,0,3.11.83c5.27.44,9.72,3,14.21,5.42a28.06,28.06,0,0,1,3.56,1.86,29.08,29.08,0,0,1,5,4.36c2.52,3,5.21,6,6.8,9.63a18.86,18.86,0,0,1,1.54,4.81C245.48,167.51,245.77,173.23,244.42,178.91Zm6.41-7.1c-.37,0-.7-.53-1-.82.34-.21.69-.58,1-.58a6.42,6.42,0,0,1,1.72.68C251.69,171.48,251.24,171.86,250.83,171.82Zm6.6-.9a2.77,2.77,0,0,1,1.27-1.77c.69-.4,1.35.07,1.64.89.07,1.06-.73,1.33-1.51,1.53C258.22,171.73,257.34,171.74,257.43,170.91Zm2.24,5.48c-.44-.54-.84-.82-.92-1.17a.91.91,0,0,1,1-1.22,1.16,1.16,0,0,1,.72.89C260.43,175.34,260,175.75,259.67,176.39Zm82.11-15.19h0Zm150.1-27.42a7.6,7.6,0,0,0-6-3.53c-2.36-.18-3.44,1.5-4.41,3.33-1.67,3.16-3,6.47-5.25,9.34a40.72,40.72,0,0,1-16.84,13c-3.27,1.33-5.36-.23-5.12-3.7a19.91,19.91,0,0,1,2.28-7.42c1.65-3.36,2.19-7,2.71-10.64s.77-7.32,1-11a80.66,80.66,0,0,0,.1-11,55.86,55.86,0,0,0-2-9.72c-1.06-3.89-2.1-7.9-5.56-10.51-2.49-1.89-5.12-3.61-7.72-5.36a13.26,13.26,0,0,0-7.09-2.25c-4.37-.14-8.72-.9-13.13-.14-3.65.62-7.25,1.24-10.3,3.55A18.42,18.42,0,0,1,412.35,89a57,57,0,0,0-5.58,3.15,40,40,0,0,0-5.42,4.74c-1.85,1.93-3.49,4.07-5.18,6.16-.73.9-1.36,1.89-2,2.83a22.63,22.63,0,0,0-3.35,6.35,14.09,14.09,0,0,1-2.64,4.95c-1.69,1.91-2.34,4.19-3.17,6.44-.19.5-.43,1-.6,1.5-1.12,3.4-2.63,6.74-3.26,10.23a42.55,42.55,0,0,1-10.5,20.85,36.71,36.71,0,0,1-14.44,10.09c-3.25,1.23-5.8-.66-5.09-4a67.19,67.19,0,0,1,2.5-7.36,33.31,33.31,0,0,0,1.56-5.12c.53-3.27.78-6.58,1.19-9.87.87-6.93,2-13.8.33-20.83-.81-3.5-1.42-7-2.88-10.33-1.15-2.62-2.21-5.33-4.69-7.09a39.15,39.15,0,0,0-3.49-2.52c-2.64-1.47-5.23-3.41-8.09-4a46.91,46.91,0,0,0-14.43-.78c-4.08.32-8,1.13-11.45,3.48a62.61,62.61,0,0,1-7.68,4.38c-2.53,1.22-4,3.52-5.85,5.35-1.21,1.17-2.14,2.64-3.29,3.88a34.63,34.63,0,0,0-6.83,9.9c-1.15,2.73-1.92,5.61-4.13,7.76a2.68,2.68,0,0,0-.52.93c-2.32,5.83-4.7,11.64-5.72,17.89-.17,1.06-.62,2.07-.79,3.13a23.49,23.49,0,0,0-.5,4.47,11.09,11.09,0,0,1-.65,5,10.44,10.44,0,0,0-.42,1.82c-.84,3.54-.41,7.14-.51,10.71a28.07,28.07,0,0,0,.26,6.14c.59,3,1.55,5.88,2.41,8.8.48,1.63.73,3.47,1.68,4.79,3,4.17,6.57,7.88,11.39,10a28.31,28.31,0,0,0,6.16,1.76,58.27,58.27,0,0,0,6.42.62c1.25.09,2.5.11,3.75.1,5.42,0,10.15-2.45,14.67-4.91s8.6-5.8,12.87-8.77A3.11,3.11,0,0,0,335,191c2-2.32,4-4.62,5.89-7a8,8,0,0,1,6.13-3.38,53.68,53.68,0,0,0,6.37-1A35.68,35.68,0,0,0,364.47,176a28.92,28.92,0,0,0,6-4.37c1.64-1.52,3.31-3,5.06-4.39,1.09-.87,1.72-.61,2.13.74.88,2.91,1.68,5.84,2.57,8.75.83,2.74,1.65,5.46,3.46,7.82a26.13,26.13,0,0,0,9.67,7.95,25.51,25.51,0,0,0,6.14,1.82,67,67,0,0,0,7,.69c1.07.08,2.14.08,3.22.06,5.69-.1,10.64-2.6,15.39-5.26,4.36-2.44,8.31-5.61,12.43-8.46a3,3,0,0,0,.61-.53c1.94-2.34,3.85-4.7,5.8-7,1.34-1.6,2.79-3,5.08-3.2,3.11-.34,6.19-1,9.29-1.42,4.48-.58,8.15-3.13,12.16-4.84.7-.3,1.18-1.08,1.78-1.61,1.88-1.64,3.83-3.22,5.65-4.93a44.71,44.71,0,0,0,3.24-3.57c.46-.54.72-1.32,1.26-1.72,2.64-1.91,4.15-4.65,5.66-7.41,1.21-2.2,2.46-4.38,3.62-6.61C492.42,136.94,492.84,135.27,491.88,133.78ZM289.7,172.51c-1,.35-2.63-.9-2.5-1.83a1.93,1.93,0,0,1,1.08-1.27c1.09-.39,2.24.42,2.47,1.93C290.54,171.59,290.22,172.32,289.7,172.51Zm2-36.54a12,12,0,0,1,2,.54c-.63.43-.94.8-1.16.76a8,8,0,0,1-1.54-.65C291.24,136.39,291.48,136,291.69,136Zm1.14,22.68c-.45-.1-1.15-.88-1.07-1.15a12.4,12.4,0,0,1,1.26-2.43l1.14,1C294.34,157.76,293.7,158.84,292.82,158.65Zm53.72-19.85c.35.05.67.38,1.25.74-.57.38-.95.81-1.19.75s-.58-.55-.72-.91C345.85,139.27,346.35,138.77,346.55,138.8Zm-1.78,13.65c-.25-1.63.89-3.57-1.05-4.85a.76.76,0,0,1-.14-.73c.92-1.49.49-2.85-.21-4.28a1.29,1.29,0,0,1,.83-1.93c.88-.25,1.28.41,1.54,1.12.48,1.33.94,2.68,1.41,4l-.43.1a50.87,50.87,0,0,1,1,5.18,8.57,8.57,0,0,1-.5,3.35c-.12.38-1,.73-1.5.71-.34,0-.8-.66-.95-1.11S344.84,153,344.77,152.46ZM345.91,127a1.19,1.19,0,0,1-.66.92c-.75.13-1.88-1-1.7-1.71.09-.35.52-.62.72-.84C345.46,125.49,345.91,126.12,345.91,127Zm-2.35-20.18c.2,0,.42.19.76.37-.27.22-.45.48-.62.47s-.4-.24-.59-.38C343.26,107.13,343.4,106.85,343.56,106.83Zm-1.34,24.4a5.74,5.74,0,0,1,1.21.73c-.51.19-.78.4-.94.33a5.54,5.54,0,0,1-1-.7C341.76,131.46,342,131.18,342.23,131.23Zm-2.91,17.42c.16-.27.51-.43.94-.77a6.31,6.31,0,0,1,1.11,1.48,4.12,4.12,0,0,1,0,1.73c0,.1-.47.25-.7.22A1.88,1.88,0,0,1,339.32,148.65Zm-.61,8.41a5.74,5.74,0,0,1,1.36.91L339,159l-1.19-1.31C338.12,157.48,338.51,157,338.71,157.05Zm-4.35-3.18c-.26-.29-.8-.7-.74-.86a2.11,2.11,0,0,1,.95-1c.23-.12.67.16,1.26.33Zm.59,10.34a7.58,7.58,0,0,1-1.18-.66,4.72,4.72,0,0,1,.43-1,4.39,4.39,0,0,1,1.06.83C335.35,163.55,335.06,163.94,334.95,164.21Zm-33.53-36.08c.19,0,.4.23,1,.6-.34.19-.59.44-.78.4s-.46-.34-.69-.52C301.09,128.44,301.24,128.15,301.42,128.14Zm-6.49,13.24a1.49,1.49,0,0,1,1-1.92,3.91,3.91,0,0,1,.79-.09s0,0,0,.06a12.22,12.22,0,0,1,1.59,0c.39,0,1,.18,1.1.41.12.45.09,1.29-.17,1.44a15.09,15.09,0,0,1-3.36,1.4C295.68,142.74,295,141.88,294.93,141.37Zm23,21.9a4.65,4.65,0,0,0,.37,2.35c.73,1.93,1.52,3.84,2.39,5.7a7,7,0,0,1-.36,6.69,26.22,26.22,0,0,1-10,10.26,7.54,7.54,0,0,1-8.18.08c-3.11-1.94-5.23-4.59-5.62-8.38-.09-.89-.18-1.79-.33-3.29a25.06,25.06,0,0,1,.48-9,39.8,39.8,0,0,0,.67-4.52c.25-2.68.95-5.28,1.34-7.91.69-4.58,2.4-8.78,3.85-13.09.57-1.69,1.46-3.27,2-5A59,59,0,0,1,318.13,114a21.25,21.25,0,0,1,2.85-2.46A8.59,8.59,0,0,1,332.81,113a10.89,10.89,0,0,1,2.6,6.1,71.09,71.09,0,0,1,.31,8.57,58.26,58.26,0,0,1-3,16.6c-1.09,3.17-2.85,5.65-6.21,6.91C321,153.27,318.91,157.93,317.92,163.27ZM325.36,174a9.7,9.7,0,0,1-1.07-1.28c-.06-.1.46-.73.54-.7a12.63,12.63,0,0,1,1.63.95Zm1-6.3-1.14-1.22c.29-.26.59-.73.88-.73a1.17,1.17,0,0,1,.87.71C327,166.72,326.63,167.11,326.32,167.69Zm.19-5.49a3.06,3.06,0,0,1-1.07-.45c.16-.29.26-.76.48-.81s.72.14,1.33.3C326.88,161.72,326.69,162.2,326.5,162.2Zm4.06,20.24c-.26.19-1-.09-1.4-.36a4.87,4.87,0,0,1-1.24-1.38c-.46-.74-.6-1.55.25-2.13a1.48,1.48,0,0,1,2.14.37,14.35,14.35,0,0,1,1.11,2C331.14,181.46,331,182.14,330.57,182.44Zm.61-16.47c0-.13.37-.54.64-.61a3.8,3.8,0,0,1,1.23.17l-1.19,1.27C331.61,166.52,331.28,166.28,331.18,166Zm2,6.56-.72-.45a3.8,3.8,0,0,1,.54-.76c.06-.05.38.18.71.34Zm3.13,5.42a4.57,4.57,0,0,1-1.54-1.69c-.16-.31.23-.91.37-1.38.4.12.89.14,1.17.4a23.33,23.33,0,0,1,1.78,2.13C337.25,177.67,336.6,178.11,336.32,177.94Zm1.46-4.61a2.16,2.16,0,0,1-2.79-.82,19.9,19.9,0,0,1-1.35-2.88,1.35,1.35,0,0,1,.23-1.21c.94-.79,2-1.45,3.18-2.29.3.42.64.69.69,1a1.75,1.75,0,0,1-.33,1,2.34,2.34,0,0,0,.26,2.94C338.23,171.72,338.88,172.58,337.78,173.33Zm.62-10.41a1.89,1.89,0,0,1,1-1.34,9.39,9.39,0,0,1,2.36-.38,2.44,2.44,0,0,1,1.74-2.71c.71-.27,1.8-.76,2.19-.46.84.66-.1,1.4-.48,2a3.58,3.58,0,0,0,.07,3.8c.92,1.74.46,2.43-1.51,2.51a13.77,13.77,0,0,1-2.14-.15C340.23,166.07,338.36,164.27,338.4,162.92Zm5.18,11.44a11.19,11.19,0,0,1-1.31-1.78c-.08-.17.39-.6.61-.92a10.07,10.07,0,0,1,1.44,1.29C344.41,173.07,344,173.6,343.58,174.36Zm1.19-6.16a1.08,1.08,0,0,1,1.24-1.31c.37,0,1,.68,1,.87a9.3,9.3,0,0,1-1.19,1.91C345.28,169,344.82,168.6,344.77,168.2Zm1.78,10.3c-.18,0-.32-.32-.47-.5a2,2,0,0,1,.65-.3A5.73,5.73,0,0,1,348,178C347,178.36,346.75,178.54,346.55,178.5Zm2.87-52.31c-1.14.19-2.24.27-2.42-1.27-.13-1.1.93-1.87,2.42-1.84,1.16,0,1.69.62,1.72,1.89S350.47,126.47,349.41,126.19Zm1.18,6c0-.29.36-.63.69-1.17.4.5.83.81.82,1.11s-.46.56-.72.85C351.1,132.73,350.63,132.5,350.59,132.21Zm42,30.08a2.18,2.18,0,0,1-2.31-2,1.8,1.8,0,0,1,1.15-1.13c1.15-.29,2.16.54,2.29,2.08C393.49,161.46,393.12,162.14,392.59,162.29Zm57.79-32.82c.13.25-.12.69-.29,1.46-.8-1-1.15-1.32-1.24-1.67,0-.19.36-.49.55-.74C449.75,128.83,450.19,129.09,450.38,129.47Zm-1.09-12.71a1.28,1.28,0,0,1-.58,1c-.71.3-2.06-.74-2.24-1.8.18-.19.4-.63.73-.76A1.68,1.68,0,0,1,449.29,116.76Zm-2.67-20.27c.19,0,.39.21.68.39-.22.23-.43.55-.5.52a3.11,3.11,0,0,1-.68-.51C446.28,96.75,446.45,96.49,446.62,96.49ZM445.19,121a5.73,5.73,0,0,1,1.22.72c-.48.2-.75.42-.9.35a6,6,0,0,1-1-.68C444.74,121.23,445,120.93,445.19,121Zm-2.25,17c.62-.39,1.52.69,1.75,2.22-.18.21-.46.83-.78.85a1.57,1.57,0,0,1-1.74-1.61A1.92,1.92,0,0,1,442.94,137.94Zm-1.82,8.2,2.31,1.46c-.35.29-.66.75-1.05.84-.72.16-1.44,0-1.55-.94A4.65,4.65,0,0,1,441.12,146.15Zm-36.45-28.3c.26,0,.51.33,1,.69-.53.25-.84.53-1.08.48s-.44-.42-.66-.65C404.18,118.18,404.43,117.85,404.68,117.85ZM395,125.79a5.75,5.75,0,0,1,1.29.58l-.68.91-1.24-.85C394.55,126.2,394.8,125.76,395,125.79Zm1.81,22.32c-.47.73-1.89.49-1.87-.31a6,6,0,0,1,.95-2.85c.33-.54,1.23.29,1.39,1.78A4.81,4.81,0,0,1,396.77,148.11ZM398,131.64c-.45-1,0-2.3.9-2.44a7.34,7.34,0,0,1,3.15.06c.84.25.69,1.32.15,1.78a18.92,18.92,0,0,1-3,1.69C398.79,132.35,398.2,132.09,398,131.64Zm26.56,12.85a18.9,18.9,0,0,0-3.64,8.56,5.18,5.18,0,0,0,.46,2.6c.69,1.85,1.47,3.67,2.31,5.45a6.6,6.6,0,0,1-.13,6.21,22.43,22.43,0,0,1-7.4,8.71,8.69,8.69,0,0,0-1.29,1c-3.9,3.72-9.61,2.12-12.1-.67a12.05,12.05,0,0,1-3.33-7.17c-.36-4.31-.57-8.59.5-12.83a3.22,3.22,0,0,0,.14-.79c0-5.17,1.53-10.08,2.7-15,.88-3.71,2.52-7.25,3.87-10.85.88-2.34,2.07-4.58,2.78-7a41.8,41.8,0,0,1,8.7-15.27,45.67,45.67,0,0,1,5.56-5.8,8.7,8.7,0,0,1,13.74,3.75,47.48,47.48,0,0,1,1.48,6,53.58,53.58,0,0,1-.94,13.15,64.93,64.93,0,0,1-2.64,11,7.75,7.75,0,0,1-4.34,4.83C428.57,141.27,426.28,142.34,424.55,144.49Zm12.75-.86s-.65-.5-.61-.65a9.09,9.09,0,0,1,.76-1.54l1.17,1A15.23,15.23,0,0,1,437.31,143.64Zm1,9.87c0,.08-.32.3-.5.45a6.63,6.63,0,0,1-.72-.91c0-.06.29-.33.6-.67A7.1,7.1,0,0,1,438.29,153.51Zm-9.74,10.84a10.69,10.69,0,0,1-1.25-1.85c-.07-.18.4-.8.7-.86a1.09,1.09,0,0,1,1.44,1.08C429.45,163.12,429,163.52,428.55,164.35Zm.92-7.31a2.87,2.87,0,0,1-1.23-.66c-.09-.1.28-.65.57-1.26a6.79,6.79,0,0,1,1.13,1.18C430,156.43,429.56,157.07,429.47,157Zm-.18-5.11a.93.93,0,0,1-.55-.69c0-.2.4-.56.63-.56s.45.35.83.7C429.78,151.65,429.48,152,429.3,151.93Zm4.36,20.19a2.78,2.78,0,0,1-1.75-.7,3.35,3.35,0,0,1-.73-1.4c-.27-.7-.41-1.58.45-1.8a2.43,2.43,0,0,1,1.81.64,5.75,5.75,0,0,1,.92,1.79C434.14,171.14,433.93,172.1,433.65,172.12Zm.53-16.24a1.11,1.11,0,0,1,.71-.83c.28,0,.64.37,1.17.72-.49.4-.79.83-1.08.82S434.19,156.14,434.19,155.88Zm5.21,11.85A2.27,2.27,0,0,1,438,166.6a5.1,5.1,0,0,1,0-1.93,5.77,5.77,0,0,1,1.58.63,9.59,9.59,0,0,1,1.31,1.76C440.3,167.35,439.77,167.83,439.4,167.73Zm1.51-4.74a1.74,1.74,0,0,1-2.37-.56,17.32,17.32,0,0,1-1.11-1.46l-.41-.57h0a4.69,4.69,0,0,1-.17,1.53c-.11.24-.69.27-1.06.4,0-.38-.24-.9-.07-1.11a4.82,4.82,0,0,1,1.29-.82h0c-.68-2-.65-2.15.82-3a8.94,8.94,0,0,1,1.67-.82,4.33,4.33,0,0,1,1.2-.07,2.61,2.61,0,0,1-.13,1,2.72,2.72,0,0,0,.28,3.64C441.34,161.63,441.72,162.46,440.91,163Zm2.86-7.12c-.95-.13-2.76-2.68-2.36-3.46a2.7,2.7,0,0,1,1.78-1.25c1.13-.16,2-.21,2.22-1.67.1-.58,1.08-1.1,1.76-1.45a5.1,5.1,0,0,1,1.7-.23,3.89,3.89,0,0,1-.31,1.46,3.8,3.8,0,0,0-.11,4.69c.76,1.25.23,2-1.38,2.15C446.07,156,444.91,156,443.77,155.87Zm3,7.66c-.62-.32-1.2-.72-2-1.23.52-.47.73-.8,1-.86a1.44,1.44,0,0,1,1.56,1.37A1.3,1.3,0,0,1,446.79,163.53Zm1.06-5.34a1.13,1.13,0,0,1,1.09-1.5c.37,0,1.12.54,1.1.78a7.69,7.69,0,0,1-.88,2C448.49,158.85,448,158.58,447.85,158.19Zm1.93,10.06c-.21,0-.46-.15-.68-.24l.29-.7.76.4C450,167.9,449.93,168.22,449.78,168.24Zm.51-24.08a1.85,1.85,0,0,1-1.53.73c-.44-.1-.88-.8-1.07-1.33s.15-1.07.07-1.58c-.25-1.56.81-3.42-1.07-4.62a.77.77,0,0,1-.14-.73c.93-1.51.43-2.86-.19-4.33a2,2,0,0,1,.61-1.79c.71-.51,1.31.07,1.68.79.61,1.19,1.22,2.37,1.77,3.45a13.27,13.27,0,0,1-.17,1.51,4.83,4.83,0,0,0,.5,3.89C451.68,141.6,451.09,142.95,450.3,144.16Zm.09-29.47c-.11-1.1.53-1.74,1.8-1.84,1.05-.09,1.74.29,1.89,1.41s-.28,1.54-1.84,1.67C451.2,116.2,450.5,115.87,450.38,114.69Zm3.2,7.36a1.11,1.11,0,0,1,.66-.87c.27-.06.65.32,1.21.64-.46.42-.73.87-1,.88S453.6,122.3,453.58,122Z"/><path class="cls-1" d="M465.9,294.55a6,6,0,0,0-7.12,2.68c-.69,1.15-1.33,2.34-2,3.5-2.69,4.53-4.76,9.48-9.13,12.82a13.58,13.58,0,0,0-1.73,2.06,27.83,27.83,0,0,1-9.41,6.6,3.4,3.4,0,0,1-4-.73c-1.24-1.06-1.21-2.24-.72-3.64,1.08-3.14,2.13-6.29,3.11-9.46,1.26-4.1,3-8.08,2.93-12.52a10.8,10.8,0,0,1,.48-2.37c.37-1.75.86-3.49,1.07-5.27.58-4.9,1.07-9.82,1.53-14.73a29.51,29.51,0,0,0-1.2-11.71c-1.28-4-3.59-7.59-6-11a7.41,7.41,0,0,0-2.8-2,24.22,24.22,0,0,0-4.24-1.69,20.57,20.57,0,0,0-5-.94,28.4,28.4,0,0,0-5.89.54,24.21,24.21,0,0,0-12.08,5.5,11.84,11.84,0,0,1-3.16,2,2.37,2.37,0,0,1-3.29-2.35,7.5,7.5,0,0,1,.52-2.36c2.23-6,3-12.36,5.57-18.2a7.74,7.74,0,0,0,.27-1c1.39-4.82,5.56-18,7.08-22.76,1.21-3.82-.57-6.42-5-5.61a61.57,61.57,0,0,1-10.4,1.08c-2.63,0-5.2.67-6.33,3.6-1.32,3.42-5.82,15.08-6.79,18.6s-2.38,6.8-2.22,10.48a2.34,2.34,0,0,1-.18.78c-1.08,3.32-2.11,6.67-3.26,10-2,5.66-4.05,11.29-5.48,17.13-.45,1.82-.69,3.7-1.21,5.5-1,3.61-2.18,7.19-3.28,10.77a5.92,5.92,0,0,1-.36,1,32.69,32.69,0,0,0-3.44,11.53,46.57,46.57,0,0,1-1.65,6.51,37.35,37.35,0,0,1-1.38,4.88c-1.67,4-3.73,7.76-5.19,11.78-1.28,3.52-3.46,6.47-5.28,9.63-2.25,3.87-4.85,7.55-7.37,11.25a37.77,37.77,0,0,1-3.35,4.2c-1.56,1.71-3.3,3.26-4.89,5a15.25,15.25,0,0,1-7.42,4.13,4,4,0,0,1-5.2-3c-.88-3.76-1.49-7.62-.5-11.46,1.09-4.26,2.25-8.5,3.55-12.7.85-2.74,1.85-5.38,1.95-8.33,0-1.53,1-3,1.46-4.55.63-1.86,1.28-3.72,1.87-5.6.24-.76.29-1.6.58-2.34a71.42,71.42,0,0,0,3.75-14,19.36,19.36,0,0,1,1.77-5.6c2.84-5.51,3.3-11.73,5.49-17.43a1.79,1.79,0,0,0,.05-.26,2.72,2.72,0,0,0-1.06-2.85c-1.53-1.31-2.54-1.36-4.63-.08-3.45,2.11-6.86,4.27-10.34,6.32a29,29,0,0,1-5.06,2.47c-3.33,1.17-6.42-.22-8.13-3.33a7.62,7.62,0,0,0-1.84-2.6c-3.18-2.28-6.24-4.87-10.34-5.38-3.21-.4-6.46-1-9.63-.1-3.63,1-7.24,2.13-10,5a8,8,0,0,1-2.2,1.54c-5,2.43-8.14,6.86-11,11.19a51.17,51.17,0,0,0-6.7,12.83c-.16.51-.53.94-.73,1.44-1.52,3.82-3.21,7.58-4.47,11.48-1.16,3.57-1.92,7.27-2.72,11a31.51,31.51,0,0,1-4,9.63c-.46.76-.86,1.57-1.25,2.38-1.2,2.49-2.21,5.09-3.62,7.44-2.34,3.9-4.85,7.71-7.48,11.42-2.05,2.9-3.81,6-6.47,8.49-2,1.82-3.82,3.79-6,5.41a10.65,10.65,0,0,1-4.39,1.87,5.7,5.7,0,0,1-6.73-5.86c.26-7,1.91-13.67,3.88-20.31,1.41-4.73,2.95-9.41,4.38-14.13s2.82-9.64,4.29-14.44c1-3.25,2.38-6.39,2.53-9.87a15.2,15.2,0,0,1,2.1-7.16,13.93,13.93,0,0,0,1.13-3.56c.27-1,.36-2.13.65-3.16,1.09-3.79,2.24-7.56,3.34-11.35.4-1.38.65-2.79,1.07-4.16,1.56-5.05,3.18-10.09,4.76-15.14.85-2.74,1.61-5.51,2.5-8.23a64.63,64.63,0,0,0,2.46-11.83c.35-2.61-.72-4-3.28-4.15-2.23-.14-4.48,0-6.71,0,0,.07,0,.13,0,.2a35.35,35.35,0,0,0-4.28.46c-3.09.7-6.1,1.61-7.94,4.54a22.73,22.73,0,0,0-3.08,9.11,34.16,34.16,0,0,1-2.29,8,45,45,0,0,0-1.47,4.31c-1.51,5.35-2.91,10.74-4.47,16.08-1.16,4-2.54,7.85-3.75,11.79s-2.33,7.85-3.47,11.78c-.08-.34-.16-.68-.24-1-.17.7-.36,1.39-.56,2.09a43.3,43.3,0,0,1-5.59,12.53c-1.28,1.86-2.93,3.44-4.25,5.28-2.78,3.91-5.83,7.43-10.13,9.56-4.15,2.06-8.16,4.45-12.4,6.29-3.85,1.67-7.9,2.89-12.19,2.58-2-.14-3.9-.4-5.86-.44a30.68,30.68,0,0,1-14.2-4c-1.06-.58-2-1.41-3.09-1.94a13.47,13.47,0,0,1-5.59-5.44,41.15,41.15,0,0,1-5.26-12.79,35.73,35.73,0,0,1,.17-14.12,11,11,0,0,1,1.32-3.75,57.15,57.15,0,0,1,4.75-6.8c-.06-2.19-2.73-7.34-4.11-8.18-2.31-1.4-5.09-1.8-10.27-1l-.37.34c-.77.7-1.5,1.44-2.24,2.18-2.78,2.79-5.35,5.72-6.86,9.55-2.62,6.62-4.37,13.34-2.78,20.62a11.64,11.64,0,0,1,.08,1.61,36.23,36.23,0,0,0,5,16.53c1.21,2,2.75,3.7,3.9,5.68,1.83,3.16,3.72,6.1,6.68,8.35,2.76,2.11,5.21,4.68,8.39,6.17a41,41,0,0,0,4.52,1.9c3.65,1.21,7.3,2.44,11,3.43,3.48.92,7,1.66,10.62.58a2.18,2.18,0,0,1,.51,0l9.41-.47c5.64-1.74,11.16-3.57,16.74-5.15,3.91-1.11,7.33-3.2,10.72-5.32a57,57,0,0,0-1.87,22.74c.48,3.47,2.53,6.29,3.54,9.53a1.64,1.64,0,0,0,.52.61c4.22,3.76,8.82,6.5,14.81,5.55.88-.14,1.79,0,2.68-.12,1.5-.12,3-.21,4.49-.45,3.09-.5,5.63-2.2,8.28-3.73a42.49,42.49,0,0,0,11.9-9.5q2.31-2.8,4.54-5.67c1.76-2.27,3.44-4.6,5.23-6.84.89-1.12,1.21-1,1.64.46.81,2.75,1.48,5.55,2.4,8.27,1.05,3.07,2.46,6.16,5.28,7.89a56.23,56.23,0,0,0,8.59,3.75,8.42,8.42,0,0,0,5.29.46c3.47-.9,7-1.76,10.34-2.93,1.74-.61,3.22-1.92,4.87-2.81a15,15,0,0,0,4.76-4.26,37.5,37.5,0,0,1,4.78-5.06,3.39,3.39,0,0,1,5.37.6c1.63,2.44,3.89,4.19,6,6.14a13.72,13.72,0,0,0,8.78,3.63,24.79,24.79,0,0,0,8.25-.64,31.94,31.94,0,0,0,7.71-3c3.33-1.91,6.83-3.8,9.56-6.43,5.71-5.53,11.38-11.2,15.21-18.33a5.29,5.29,0,0,1,.6-.89c.85-1,1.46-.95,1.88.34.86,2.64,1.57,5.33,2.36,8a10.91,10.91,0,0,0,1,2.76,25.46,25.46,0,0,0,10.09,9c6,3.07,12.4,2.46,18.73,1.81a26,26,0,0,0,9.19-2.87c4.94-2.55,10-4.88,14-8.92,2.07-2.11,4.15-4.22,6.15-6.4a11.21,11.21,0,0,1,5.32-3.47q7.53-2.09,15-4.35a21.64,21.64,0,0,0,8.92-4.83,27.45,27.45,0,0,1,3.34-2.7c2.52-1.73,5.06-3.41,6.44-6.31a7.49,7.49,0,0,1,1.22-1.77c3.76-4.18,5.9-9.38,8.9-14a6.75,6.75,0,0,0,.78-3.1A5,5,0,0,0,465.9,294.55Zm-139.41-9,1.53.94c-.4.38-.82,1.09-1.18,1.06-.58,0-1.11-.59-1.67-.92Zm-1.39,8.78c.16-.05.41.15.71.28l-.38.7-.77-.43C324.8,294.69,324.91,294.39,325.1,294.33Zm-93.88-45.89c1,0,1.65.69,1.75,2.21a11.65,11.65,0,0,1-.3,2.31,1.72,1.72,0,0,1-1.16.86,1.24,1.24,0,0,1-1-.59,10.7,10.7,0,0,1-.87-2.77A1.71,1.71,0,0,1,231.22,248.44ZM225.39,260c.48,0,.91.58,1.77,1.17a8.2,8.2,0,0,1-1.92,1.19c-.23.06-.86-.55-.91-.92C224.22,260.68,224.47,259.87,225.39,260ZM113.86,309.7c-.14.05-.38-.19-.68-.36.23-.27.36-.57.54-.6a.63.63,0,0,1,.51.38A.72.72,0,0,1,113.86,309.7Zm.14-5.37a1.31,1.31,0,0,1-1.8-.92,1.5,1.5,0,0,1,.45-1,17.91,17.91,0,0,1,2.14.85C114.37,303.85,114.23,304.25,114,304.32Zm8.37,14.09a3.64,3.64,0,0,1-1.45-.21,1,1,0,0,1-.42-.82c0-.25.36-.47.56-.71a5.72,5.72,0,0,1,1.55.38c.29.17.43.65.63,1A2.63,2.63,0,0,1,122.37,318.41Zm19.38,17c-.25-.27-.89-.63-.95-1.06-.11-.94.63-1.43,1.42-1.47a1.32,1.32,0,0,1,1,.8C143.41,334.55,142.94,335.17,141.75,335.4Zm58,19.69a1.61,1.61,0,0,1,1.13-.79,2,2,0,0,1,1.21.45,8.4,8.4,0,0,1,1.07,1l-1.29,1c-.72-.14-1.36-.1-1.71-.39A1.52,1.52,0,0,1,199.76,355.08Zm3.5,7.82a5.74,5.74,0,0,1-1.56-.46c.3-.28.57-.71.92-.8a6.05,6.05,0,0,1,1.77.23C203.81,362.42,203.53,362.9,203.26,362.9Zm4-11.64a1.67,1.67,0,0,1-.79-.77,1.45,1.45,0,0,1,1.41-1.82c.35,0,.67.38,1.39.81C208.46,350.22,207.89,350.79,207.26,351.26Zm13.49-76.47c.43,0,.82.45,1.76,1a11.24,11.24,0,0,1-2.24.91,1.17,1.17,0,0,1-.92-.7C219.27,275.1,220,274.73,220.75,274.8Zm-5.09,21.11a1.65,1.65,0,0,1,2.13,1.46,1.8,1.8,0,0,1-.7,1.44c-.67.29-2.21-.91-2.11-1.59A4,4,0,0,1,215.66,295.91Zm-1.53,15.3a15.27,15.27,0,0,1,2.17-.7,1,1,0,0,1,.76.17,2.34,2.34,0,0,1,.78.91c0,.13-.39.53-.67.68a6.79,6.79,0,0,1-1.42.32c-.4-.15-1.1-.39-1.78-.7C213.92,311.88,214,311.27,214.12,311.21Zm-3.86-6.54a12.68,12.68,0,0,1,.86-2.75,1.28,1.28,0,0,1,1-.69,1.83,1.83,0,0,1,1.2.81c.77,1.45-.33,3.15-2.44,3.49C210.7,305.32,210.21,304.95,210.27,304.67Zm1.62,15.7a3.34,3.34,0,0,1,1-.61c.16,0,.43.37.85.77-.57.27-.91.53-1.25.53S212.08,320.62,211.88,320.38ZM263,348.46a3,3,0,0,1-4.05.41c-.57-.46-.84-1-.14-1.52.94-.63,2-1.12,3-1.7.53.33,1.23.52,1.32.86A2.68,2.68,0,0,1,263,348.46Zm3.34-41.31c.12,0,.24.19.35.29l-.29.38-.48-.43C266.08,307.31,266.23,307.15,266.37,307.15Zm-.75,39c.25-.14.75.17,1.52.4a7.4,7.4,0,0,1-1.42,1.12c-.2.08-.57-.26-.86-.41C265.1,346.88,265.27,346.35,265.62,346.15Zm-.1,7.15c-.34-.36-.72-.59-.72-.81a2.34,2.34,0,0,1,.38-1.45c.42-.46,1.37-1.1,1.6-.94.88.59,0,1.19-.3,1.76A12.86,12.86,0,0,1,265.52,353.31Zm2.82,2.62a4.07,4.07,0,0,1-1.31-.55l.81-1.05,1.3.87C268.87,355.46,268.59,355.94,268.34,355.93Zm46.06-71.08a18.14,18.14,0,0,1,1.37-2.18.49.49,0,0,1,.47-.11,3.59,3.59,0,0,1,.54.73c-.36.75-.69,1.54-1.13,2.27a.9.9,0,0,1-.88.16C314.54,285.57,314.3,285,314.4,284.85ZM317.3,315l-1,1.11c-.19-.24-.6-.55-.54-.7a5.1,5.1,0,0,1,.75-1.14Zm-3.11-4.46c.47,0,1,.43,1.83.89-.75.62-1.2,1.25-1.59,1.22s-1-.63-1.12-1.1C313.24,311.34,313.87,310.57,314.19,310.56Zm-22.6-39.5c.24,0,.52.25,1,.53-.49.31-.75.62-1,.6s-.47-.34-.71-.53C291.15,271.45,291.34,271.1,291.59,271.06Zm10,49.58a7.45,7.45,0,0,0-.52,2.08,30.5,30.5,0,0,1-7.45,16.41c-2.52,2.78-4.53,6-7.71,8.19a16.72,16.72,0,0,1-7,2.68c-2.7.43-6.33-2-7.46-4.79a38.31,38.31,0,0,1-1.15-3.92c.36-5.85-.41-11.55,1.83-17a17.84,17.84,0,0,0,.73-4.22c.5-3.48,1.77-6.74,2.7-10.1,2.12-7.71,6.2-14.46,10-21.33a27.55,27.55,0,0,1,5.68-7.11A12.34,12.34,0,0,1,302,278.31a8.72,8.72,0,0,1,5.31,3.4c3.41,4.22,3.29,8.84,1.83,13.7-1.08,3.61-2.14,7.23-3,10.89C304.9,311.18,303.8,316.08,301.6,320.64Zm6.28,15.09-1.13,2.18c-.66-.61-1.2-.87-1.31-1.26a1.12,1.12,0,0,1,1.11-1.47C307,335.15,307.44,335.54,307.89,335.74Zm-4.5,7.75a1.43,1.43,0,0,1-.94-1,2.23,2.23,0,0,1,2.21-1.85c.34.06.63.45.82.61C305.44,342.46,304.26,343.67,303.39,343.49Zm2.53,12.31c-.17-.18-.72-.51-.67-.71a15.17,15.17,0,0,1,1.09-3.48c.38-.76,1.59-.46,1.91.35A3.38,3.38,0,0,1,305.92,355.8Zm3-22.15c-.2-.44-.6-.89-.55-1.3a3.73,3.73,0,0,1,.75-1.65c.2-.28.67-.36,1-.54l.35.82a7.48,7.48,0,0,1-.42,1.92C309.85,333.25,309.29,333.41,308.89,333.65Zm2.76,15a7.71,7.71,0,0,1-1.16,1.62c-.3-.62-.62-1-.54-1.15a9.17,9.17,0,0,1,1-1.37C311.2,348,311.72,348.43,311.65,348.62Zm2.83,3.2c-1.16-.12-1.87-.57-1.89-1.62a1.21,1.21,0,0,1,.61-1c.68-.19,1.84,1.09,1.76,1.91C314.93,351.42,314.62,351.65,314.48,351.82Zm2.84-13.75a4.47,4.47,0,0,0-1.42,3.57,5.59,5.59,0,0,1-.16,1.08l-.71-.35c-.28-.4-.86-.9-.77-1.18a30.22,30.22,0,0,1,1.72-4.07c.11-.22.86-.3,1.17-.15A1.15,1.15,0,0,1,317.32,338.07Zm-.48-16.29c-2.06-.33-4.12-.7-6.15-1.19-.3-.07-.53-.81-.57-1.26,0-.14.69-.35,1.06-.54l.11.4c.92-.15,1.83-.31,2.75-.44.77-.11,3.25,1.37,3.42,2.14C317.5,321.14,317,321.8,316.84,321.78Zm.85-20.39c-.16-.07-.25-.38-.29-.6,0-.06.31-.28.4-.25a2.89,2.89,0,0,1,.64.53C318.1,301.23,317.83,301.45,317.69,301.39Zm1.6-8.28c0,.12-.65.27-.94.18a2.54,2.54,0,0,1-1.24-2.46c.06-.26.18-.5.38-1,.83.72,1.5,1.07,1.79,1.62A2.87,2.87,0,0,1,319.3,293.11Zm2.59,7.88c-.23.1-.75-.45-1.14-.71.31-.46.53-1.06,1-1.32.23-.14.82.31,1.54.63C322.67,300.22,322.36,300.78,321.89,301Zm-.57-16.39c.45,0,1,.69,1.7,1.27-.66.5-1.09,1.06-1.35,1a6.64,6.64,0,0,1-1.64-1C320.45,285.42,320.85,284.63,321.31,284.59ZM432.11,268.4c1.11.14,1.65.85,1.43,2.13a15.42,15.42,0,0,1-.86,2.51c.91,0,1.78.08,1.91,1.23a.69.69,0,0,1-.44.52c-1.21.06-1.28-.9-1.48-1.74a8.83,8.83,0,0,0-.44,1.68c-.06.88.1,1.78,0,2.66a1.84,1.84,0,0,1-2.17,1.84c-.73,0-1.63-.59-1.9.67,0,.06-.43.1-.45.06-.16-.39-.49-.89-.37-1.19.9-2.18-.36-3.57-1.68-5-.25-.26-.64-.44-.76-.74a4,4,0,0,1-.39-1.77,1.69,1.69,0,0,1,1.82-1.62c1.07.06,1.13.94,1.07,1.81,0,.41,0,.83,0,1.24a7.17,7.17,0,0,0,1.24-.37,2.45,2.45,0,0,0,1.49-2.34C430.19,268.78,430.9,268.25,432.11,268.4ZM425,290.19c.11.1-.3,1-.66,1.25a1.22,1.22,0,0,1-1.18-.16,18.13,18.13,0,0,1-1.89-2.55c-.11-.17.17-.58.41-1.32C422.94,288.46,424,289.27,425,290.19Zm-2.91-8.07,1.51-1.65c.49.36.87.5,1,.75a1.46,1.46,0,0,1-1.28,1.7C422.85,282.89,422.46,282.4,422.06,282.12Zm4.21-24.45a1.84,1.84,0,0,1,1.68.19,33.93,33.93,0,0,1,2.81,4.15,1.6,1.6,0,0,1-.56,2.13A1.66,1.66,0,0,1,428,264c-1.18-.83-2.29-3-2.53-5.26C425.62,258.54,425.84,257.85,426.27,257.66Zm-5.93,3.8,2.53.75c1.09.33,1.12,1.24,1.27,2.15.05.32.36.6.54.91,1.06,1.73.93,2.74-.57,3.91A16.53,16.53,0,0,1,421.5,271c-.42.21-1.09-.09-1.64-.16.09-.55,0-1.28.33-1.61.54-.56,1.8-.34,1.63-1.71s-.27-2.5-1.34-3.4a7,7,0,0,1-1.16-1.11C418.79,262.29,419.14,261.56,420.34,261.47Zm-2.11-8.3c.43.66.84,1,.89,1.45s-.44.61-.69.92c-.32-.36-.77-.68-.91-1.09C417.44,254.19,417.86,253.79,418.23,253.16Zm-1.41,6.16c.69.62,1.22.88,1.39,1.28a1.3,1.3,0,0,1-1.28,1.62c-.3,0-.82-.53-.8-.78A10.52,10.52,0,0,1,416.82,259.33Zm-19.53,6.76c.31.23.8.42.88.72s-.3.65-.6,1.2c-.44-.44-.91-.71-.92-1S397.07,266.4,397.3,266.09Zm-2.9-3.14c1.11-.07,1.48.83,1.53,1.72,0,.32-.74,1-.8,1A22.74,22.74,0,0,1,393,264C393.67,263.49,394,263,394.39,263Zm-4.13-5.4c.22-.09.89.47,1.05.86a.86.86,0,0,1-.85,1.25c-.4,0-.81-.41-1.5-.79C389.5,258.28,389.81,257.73,390.26,257.55Zm-.15,15.08a3.69,3.69,0,0,1-.77,1.17s-.75-.36-.73-.46a8.41,8.41,0,0,1,.65-1.49C389.69,272.24,390.15,272.53,390.11,272.63Zm-1.46-32.31a5.57,5.57,0,0,1,1.13,1.36c.3.72-.51,1.81-1.24,1.65a1.92,1.92,0,0,1-1.08-1.21C387.25,241.44,387.39,240.69,388.65,240.32Zm-2.07,20.9c.91-.15,1.43.56,1.56,1.43s-.69,1.8-1.36,1.57-1.1-.88-2-1.62C385.61,262,386,261.31,386.58,261.22Zm-.58,7.57c.18.14.58.28.65.52a1.39,1.39,0,0,1-1,1.85.89.89,0,0,1-.77-.42C384.64,269.87,385,269.21,386,268.79Zm-4.89,5.5a1,1,0,0,1,1.68.55c.26,1-1.88,4.12-3.09,4.2-.11-.18-.42-.44-.42-.7A5.6,5.6,0,0,1,381.11,274.28ZM383,286.77c-.16.28-.31.66-.37.65a3.54,3.54,0,0,1-.78-.38c.14-.19.25-.48.44-.54S382.67,286.64,383,286.77Zm-3,3.94,1.65.9c-.43.44-.75.86-.82.82a3.65,3.65,0,0,1-1.14-.89C379.54,291.42,379.83,291,379.94,290.71Zm-.27-10.1c.15-.18.3-.51.45-.51a3.31,3.31,0,0,1,1,.32,3.9,3.9,0,0,1-.47.7A7,7,0,0,1,379.67,280.61ZM375.09,301c.06.17-.34.49-.69.93a5.34,5.34,0,0,1-.89-1.39c0-.18.53-.5.82-.76A5.61,5.61,0,0,1,375.09,301Zm-.29,8.75c-.44.26-.75.59-.93.53a1,1,0,0,1-.59-.71c0-.26.31-.54.48-.81Zm-8.37-11.34a1.4,1.4,0,0,1,.15-1.15,13.33,13.33,0,0,0,3.61-6.11c.35-1.28,1.36-1.83,3-1.9a2.72,2.72,0,0,1,1.09.5c.15.15-.15.78-.3,1.17a18.6,18.6,0,0,1-1,2.43,3.31,3.31,0,0,1-1.3,1.47c-1.07.45-1.47.89-.79,2,.32.52.18,1.29-.53,1.09a3.15,3.15,0,0,0-3,.71A1.05,1.05,0,0,1,366.42,298.39Zm2,8.76a1.83,1.83,0,0,1-.37.13s-.17-.12-.16-.14a2.13,2.13,0,0,1,.22-.3l.31.31h0Zm2.5,17.22a3.94,3.94,0,0,1-.64-.93c0-.09.45-.53.67-.52s.45.39.79.72Zm1.69,13c-.34-.06-.62-.39-.93-.61.23-.22.45-.57.71-.62s.57.22,1.09.45C373,337,372.75,337.37,372.57,337.34Zm1-5.8c-.29-.65-.62-1-.55-1.35s.53-.55.81-.82c.2.32.58.64.56.94S374,330.95,373.6,331.53Zm.49-16.08a4.93,4.93,0,0,0-3.71,1.64c-.71.71-1.51.22-1.61-.85-.19-2.05,2.7-4.3,4.66-3.64a17.21,17.21,0,0,1,1.76.61c.28.13.46.47.94,1C375.34,314.71,374.71,315.45,374.09,315.45Zm1.44-9.32c-.23-1,1-2.46,1.77-2.26.48.12.85.71,1.07.9.14,1.42-.59,2.45-1.62,2.39A1.69,1.69,0,0,1,375.53,306.13Zm21.83,29.56c-2.18,3.77-5.23,6.3-9.65,6.88-4.21.55-7.17-1.48-9.34-4.71a6.8,6.8,0,0,1-.74-3.88c.16-3.49.54-7,.87-10.45a5.86,5.86,0,0,1,.56-2.06c1.2-2.35,3.07-2.61,5-.76q1.15,1.13,2.27,2.29a40.92,40.92,0,0,0,8.08,6.64,11.39,11.39,0,0,1,2.44,2.1A3.12,3.12,0,0,1,397.36,335.69Zm14.11-3.46c-1,.12-2.5-1.52-2.7-2.92a2,2,0,0,1,1.66-2.31,2.59,2.59,0,0,1,2.64,2.13C413.21,330.25,412.23,332.13,411.47,332.23Zm-2-11.07c0-.42.42-.81.79-1.46.4.54.88.94.81,1.13a5.49,5.49,0,0,1-.94,1.28C409.91,321.79,409.46,321.45,409.49,321.16Zm2-10.83a36.61,36.61,0,0,1-4.15,9.86,3.15,3.15,0,0,1-4.07,1.68c-5.31-1.72-9.75-4.58-11.94-10-1.61-4-3.7-7.82-3.71-11.81a49.12,49.12,0,0,1,.42-13.59c.54-3,2.34-5.37,3.82-7.93,2.08-3.57,5.09-6.2,8.16-8.8,4.48-3.79,11.31-3.9,15.22.11a8.12,8.12,0,0,1,2.41,4.69,44.58,44.58,0,0,1-.44,12.84C416.06,295.23,413.35,302.66,411.52,310.33Zm2.38,17.32c-.17-.16-.51-.38-.47-.47a3.79,3.79,0,0,1,.56-.88l.69.45Zm8.48,2.73c-.38-.53-.64-.76-.71-1s.19-.44.3-.66c.28.15.7.24.78.46S422.59,329.74,422.37,330.38Zm-.09-6.65a1.62,1.62,0,0,1-1.36.54c-.38-.09-1-.76-.9-1.1.33-2.2-1.1-2.46-2.69-2.79-.47-.1-.82-.76-1.23-1.16.42-.4.79-1,1.29-1.16,1.29-.41,4.91,1.64,5.33,2.9.08.25.11.52.22,1.12A5.91,5.91,0,0,1,422.28,323.74Zm1.25-11.84c-.5.6-1.94.66-2.9.52-.43-.06-.71-1.18-1-1.7.13-.75.13-1.64.3-1.67a4.42,4.42,0,0,1,1.75.2,1.54,1.54,0,0,1,.66.43C423,310.31,424.36,310.9,423.53,311.89ZM423.12,301c-.38.09-.87-.33-1.31-.52.29-.46.48-1.16.88-1.32s1,.23,2.05.52C423.94,300.34,423.58,300.86,423.12,301Zm1-2.84a1,1,0,0,1-1.35-1.18,1.7,1.7,0,0,1,1.07-1.21c.54-.06,1.15.42,2.32.92C425.14,297.43,424.69,298,424.13,298.13Zm2.5-11.11c-.46-.65-1-1.27-1.39-2-.16-.26-.22-.82-.06-1a1.59,1.59,0,0,1,1.14-.41c.7.09,1.35.43,2,.57.92.19,1-.46,1-1.14l-.26,0c-.7-.19-1.38-.41-1.2-1.36a.5.5,0,0,1,.37-.31c1,0,.91.82,1.06,1.45a2.51,2.51,0,0,1,0,.26,2.69,2.69,0,0,1,2.93,1.36c.71,1.33.62,1.69-.81,2.56a6.52,6.52,0,0,0-.64.47C428.37,289.47,428.37,289.47,426.63,287Zm4.72,7a1.31,1.31,0,0,1,1.06.77c.06.32-.46.75-.85,1.31l-1.21-1.11C430.67,294.59,431,294,431.34,294Z"/><polygon class="cls-2" points="173.04 287.6 173.04 287.6 173.04 287.6 173.04 287.6"/><path class="cls-2" d="M173.73,247.89c-.78,16.22-23.34,26.61-29.13,47.34-1.87,6.71,4,15,12.15,16.3,18.08,2.94,27.93-12.51,28-27.85C184.76,272.44,179.37,250,173.73,247.89Zm4.07,17.31c.35.05.67.38,1.25.74-.57.38-.95.81-1.19.75s-.58-.55-.72-.91C177.1,265.67,177.6,265.17,177.8,265.2Zm-4.32-7.57a5.71,5.71,0,0,1,1.21.73c-.51.19-.78.4-.94.33a5.52,5.52,0,0,1-1-.7C173,257.86,173.3,257.58,173.48,257.63ZM170.58,275c.16-.27.51-.43.94-.77a6.28,6.28,0,0,1,1.1,1.48,4.11,4.11,0,0,1,0,1.73c0,.1-.47.25-.7.22A1.88,1.88,0,0,1,170.58,275Zm-.61,8.41a5.77,5.77,0,0,1,1.36.91l-1.06,1.06-1.19-1.31C169.37,283.88,169.76,283.38,170,283.45Zm-4.14-5.06c.23-.12.67.16,1.26.33l-1.47,1.55c-.26-.29-.8-.7-.74-.86A2.11,2.11,0,0,1,165.82,278.39Zm.38,12.22A7.61,7.61,0,0,1,165,290a4.71,4.71,0,0,1,.43-1,4.38,4.38,0,0,1,1.06.83C166.6,289.95,166.31,290.33,166.2,290.61Zm-9.58,9.78a9.77,9.77,0,0,1-1.07-1.28c-.06-.1.46-.73.54-.7a12.59,12.59,0,0,1,1.63.95Zm1-6.3-1.14-1.22c.29-.26.59-.73.88-.73a1.17,1.17,0,0,1,.87.71C158.26,293.12,157.88,293.51,157.57,294.09Zm.19-5.49a3.06,3.06,0,0,1-1.06-.45c.16-.29.27-.76.48-.81s.72.14,1.33.3C158.14,288.12,157.95,288.6,157.76,288.59Zm4.06,20.24c-.26.19-1-.09-1.4-.36a4.87,4.87,0,0,1-1.24-1.38c-.46-.74-.61-1.55.25-2.13a1.48,1.48,0,0,1,2.14.37,14.39,14.39,0,0,1,1.1,2C162.4,307.85,162.25,308.53,161.82,308.83Zm.61-16.47c0-.13.37-.54.63-.61a3.78,3.78,0,0,1,1.23.17l-1.19,1.27C162.87,292.92,162.53,292.67,162.43,292.36Zm2,6.56-.72-.45a3.8,3.8,0,0,1,.54-.76c.06-.05.38.18.71.34Zm3.13,5.42a4.58,4.58,0,0,1-1.54-1.69c-.16-.31.23-.91.37-1.38.4.12.89.14,1.17.39a23.51,23.51,0,0,1,1.78,2.13C168.51,304.07,167.85,304.5,167.58,304.33Zm1-5.55a1.57,1.57,0,0,1-2-.6,14.39,14.39,0,0,1-1-2.1,1,1,0,0,1,.17-.88c.69-.57,1.45-1.06,2.31-1.67.22.31.47.5.5.73a1.28,1.28,0,0,1-.24.72,1.7,1.7,0,0,0,.19,2.14C168.87,297.61,169.35,298.23,168.55,298.78Zm1.43-10a2,2,0,0,1,.93-1.43,7.48,7.48,0,0,1,2.16-.4,2.64,2.64,0,0,1,1.59-2.89c.65-.29,1.65-.81,2-.49.77.7-.09,1.49-.44,2.18a4.35,4.35,0,0,0,.06,4c.84,1.85.42,2.58-1.38,2.67a10.76,10.76,0,0,1-2-.16A4.22,4.22,0,0,1,170,288.73Zm4.85,12a11.24,11.24,0,0,1-1.31-1.78c-.08-.17.39-.6.61-.92a10,10,0,0,1,1.44,1.29C175.66,299.47,175.24,300,174.83,300.76Zm2.21-4.7c-.51-.71-1-1.06-1-1.47a1.08,1.08,0,0,1,1.24-1.31c.37,0,1,.68,1,.87A9.31,9.31,0,0,1,177,296.06Zm1.11-16.39c-.1.31-.82.6-1.24.58s-.66-.54-.78-.91.07-.87,0-1.29c-.2-1.34.73-2.94-.87-4a.62.62,0,0,1-.11-.6c.76-1.23.4-2.35-.17-3.53a1.06,1.06,0,0,1,.68-1.59c.73-.21,1.06.34,1.27.92.4,1.1.78,2.2,1.16,3.31l-.35.09a41.85,41.85,0,0,1,.81,4.27A7,7,0,0,1,178.16,279.67Z"/></svg>